<?xml version="1.0" encoding="UTF-8" standalone="no"?>
<!-- Created with Inkscape (http://www.inkscape.org/) -->

<svg
   xmlns:dc="http://purl.org/dc/elements/1.1/"
   xmlns:cc="http://creativecommons.org/ns#"
   xmlns:rdf="http://www.w3.org/1999/02/22-rdf-syntax-ns#"
   xmlns:svg="http://www.w3.org/2000/svg"
   xmlns="http://www.w3.org/2000/svg"
   xmlns:sodipodi="http://sodipodi.sourceforge.net/DTD/sodipodi-0.dtd"
   xmlns:inkscape="http://www.inkscape.org/namespaces/inkscape"
   id="svg3004"
   version="1.1"
   inkscape:version="0.48.4 r9939"
   width="720"
   height="225"
   xml:space="preserve"
   sodipodi:docname="np_summary.svg"><metadata
     id="metadata3010"><rdf:RDF><cc:Work
         rdf:about=""><dc:format>image/svg+xml</dc:format><dc:type
           rdf:resource="http://purl.org/dc/dcmitype/StillImage" /><dc:title></dc:title></cc:Work></rdf:RDF></metadata><defs
     id="defs3008"><clipPath
       clipPathUnits="userSpaceOnUse"
       id="clipPath3030"><path
         d="m 41.22,37.28 124.63,0 0,113.94 -124.63,0 0,-113.94 z"
         id="path3032" /></clipPath><clipPath
       clipPathUnits="userSpaceOnUse"
       id="clipPath3084"><path
         d="m 182.1,37.28 124.63,0 0,113.94 -124.63,0 0,-113.94 z"
         id="path3086" /></clipPath><clipPath
       clipPathUnits="userSpaceOnUse"
       id="clipPath3140"><path
         d="m 328.54,37.28 124.63,0 0,113.94 -124.63,0 0,-113.94 z"
         id="path3142" /></clipPath></defs><sodipodi:namedview
     pagecolor="#ffffff"
     bordercolor="#666666"
     borderopacity="1"
     objecttolerance="10"
     gridtolerance="10"
     guidetolerance="10"
     inkscape:pageopacity="0"
     inkscape:pageshadow="2"
     inkscape:window-width="1855"
     inkscape:window-height="1056"
     id="namedview3006"
     showgrid="false"
     inkscape:zoom="2.4120198"
     inkscape:cx="336.99891"
     inkscape:cy="189.18748"
     inkscape:window-x="65"
     inkscape:window-y="24"
     inkscape:window-maximized="1"
     inkscape:current-layer="g3012" /><g
     id="g3012"
     inkscape:groupmode="layer"
     inkscape:label="np_summary"
     transform="matrix(1.25,0,0,-1.25,0,225)"><g
       id="g3014" /><g
       id="g3016" /><g
       id="g3018" /><g
       id="g3020"><path
         d="M 0,0 576,0 576,180 0,180 0,0 z"
         style="fill:#ffffff;fill-opacity:1;fill-rule:nonzero;stroke:#ffffff;stroke-opacity:1;stroke-width:1.06;stroke-linecap:round;stroke-linejoin:round;stroke-miterlimit:10;stroke-dasharray:none"
         id="path3022" /></g><g
       id="g3024" /><g
       id="g3026"><g
         id="g3028"
         clip-path="url(#clipPath3030)"><path
           d="m 41.22,37.28 124.63,0 0,113.94 -124.63,0 0,-113.94 z"
           style="fill:#ffffff;fill-opacity:1;fill-rule:nonzero;stroke:none"
           id="path3034" /><path
           d="m 41.22,49.19 124.63,0"
           style="fill:none;stroke:#fafafa;stroke-opacity:1;stroke-width:1.06;stroke-linecap:butt;stroke-linejoin:round;stroke-miterlimit:10;stroke-dasharray:none"
           id="path3036" /><path
           d="m 41.22,81.14 124.63,0"
           style="fill:none;stroke:#fafafa;stroke-opacity:1;stroke-width:1.06;stroke-linecap:butt;stroke-linejoin:round;stroke-miterlimit:10;stroke-dasharray:none"
           id="path3038" /><path
           d="m 41.22,113.1 124.63,0"
           style="fill:none;stroke:#fafafa;stroke-opacity:1;stroke-width:1.06;stroke-linecap:butt;stroke-linejoin:round;stroke-miterlimit:10;stroke-dasharray:none"
           id="path3040" /><path
           d="m 41.22,145.06 124.63,0"
           style="fill:none;stroke:#fafafa;stroke-opacity:1;stroke-width:1.06;stroke-linecap:butt;stroke-linejoin:round;stroke-miterlimit:10;stroke-dasharray:none"
           id="path3042" /><path
           d="m 58.22,37.28 0,113.94"
           style="fill:none;stroke:#fafafa;stroke-opacity:1;stroke-width:1.06;stroke-linecap:butt;stroke-linejoin:round;stroke-miterlimit:10;stroke-dasharray:none"
           id="path3044" /><path
           d="m 80.88,37.28 0,113.94"
           style="fill:none;stroke:#fafafa;stroke-opacity:1;stroke-width:1.06;stroke-linecap:butt;stroke-linejoin:round;stroke-miterlimit:10;stroke-dasharray:none"
           id="path3046" /><path
           d="m 103.54,37.28 0,113.94"
           style="fill:none;stroke:#fafafa;stroke-opacity:1;stroke-width:1.06;stroke-linecap:butt;stroke-linejoin:round;stroke-miterlimit:10;stroke-dasharray:none"
           id="path3048" /><path
           d="m 126.2,37.28 0,113.94"
           style="fill:none;stroke:#fafafa;stroke-opacity:1;stroke-width:1.06;stroke-linecap:butt;stroke-linejoin:round;stroke-miterlimit:10;stroke-dasharray:none"
           id="path3050" /><path
           d="m 148.86,37.28 0,113.94"
           style="fill:none;stroke:#fafafa;stroke-opacity:1;stroke-width:1.06;stroke-linecap:butt;stroke-linejoin:round;stroke-miterlimit:10;stroke-dasharray:none"
           id="path3052" /><path
           d="m 41.22,65.16 124.63,0"
           style="fill:none;stroke:#e5e5e5;stroke-opacity:1;stroke-width:0.43;stroke-linecap:butt;stroke-linejoin:round;stroke-miterlimit:10;stroke-dasharray:none"
           id="path3054" /><path
           d="m 41.22,97.12 124.63,0"
           style="fill:none;stroke:#e5e5e5;stroke-opacity:1;stroke-width:0.43;stroke-linecap:butt;stroke-linejoin:round;stroke-miterlimit:10;stroke-dasharray:none"
           id="path3056" /><path
           d="m 41.22,129.08 124.63,0"
           style="fill:none;stroke:#e5e5e5;stroke-opacity:1;stroke-width:0.43;stroke-linecap:butt;stroke-linejoin:round;stroke-miterlimit:10;stroke-dasharray:none"
           id="path3058" /><path
           d="m 46.89,37.28 0,113.94"
           style="fill:none;stroke:#e5e5e5;stroke-opacity:1;stroke-width:0.43;stroke-linecap:butt;stroke-linejoin:round;stroke-miterlimit:10;stroke-dasharray:none"
           id="path3060" /><path
           d="m 69.55,37.28 0,113.94"
           style="fill:none;stroke:#e5e5e5;stroke-opacity:1;stroke-width:0.43;stroke-linecap:butt;stroke-linejoin:round;stroke-miterlimit:10;stroke-dasharray:none"
           id="path3062" /><path
           d="m 92.21,37.28 0,113.94"
           style="fill:none;stroke:#e5e5e5;stroke-opacity:1;stroke-width:0.43;stroke-linecap:butt;stroke-linejoin:round;stroke-miterlimit:10;stroke-dasharray:none"
           id="path3064" /><path
           d="m 114.87,37.28 0,113.94"
           style="fill:none;stroke:#e5e5e5;stroke-opacity:1;stroke-width:0.43;stroke-linecap:butt;stroke-linejoin:round;stroke-miterlimit:10;stroke-dasharray:none"
           id="path3066" /><path
           d="m 137.53,37.28 0,113.94"
           style="fill:none;stroke:#e5e5e5;stroke-opacity:1;stroke-width:0.43;stroke-linecap:butt;stroke-linejoin:round;stroke-miterlimit:10;stroke-dasharray:none"
           id="path3068" /><path
           d="m 160.19,37.28 0,113.94"
           style="fill:none;stroke:#e5e5e5;stroke-opacity:1;stroke-width:0.43;stroke-linecap:butt;stroke-linejoin:round;stroke-miterlimit:10;stroke-dasharray:none"
           id="path3070" /><path
           d="m 46.89,54.45 2.26,-4.45 2.27,0.24 2.27,-0.07 2.26,0.46 2.27,1.53 2.26,2.2 2.27,3.01 2.27,2.49 2.26,1.83 2.27,2.05 2.26,2.69 2.27,2.56 2.27,3.09 2.26,3.59 2.27,1.47 2.26,3.03 2.27,2.67 2.27,1.86 2.26,1.66 2.27,3.31 2.26,2.06 2.27,2.27 2.27,2.81 2.26,3.62 2.27,3.42 2.26,1.81 2.27,2.12 2.27,2.46 2.26,2.6 2.27,2.17 2.26,0.65 2.27,2.23 2.27,1.04 2.26,1.86 2.27,2.45 2.26,2.37 2.27,2.41 2.27,1.96 2.26,2.25 2.27,1.83 2.26,0.11 2.27,1.6 2.27,0.84 2.26,1.12 2.27,-0.81 2.26,5.59 2.27,2.34 2.27,0.32 2.26,0.87 2.27,-0.58"
           style="fill:none;stroke:#000000;stroke-opacity:1;stroke-width:1.06;stroke-linecap:butt;stroke-linejoin:round;stroke-miterlimit:1;stroke-dasharray:none"
           id="path3072" /><path
           d="m 46.89,54.45 2.26,-7.8 2.27,-1.28 2.27,-1.53 2.26,-1.02 2.27,-0.36 2.26,0.04 2.27,0.15 2.27,0.19 2.26,0.1 2.27,0.13 2.26,0.39 2.27,0.17 2.27,0.52 2.26,0.61 2.27,0.13 2.26,0.39 2.27,0.16 2.27,0.41 2.26,0.38 2.27,0.4 2.26,-0.01 2.27,0.24 2.27,0.36 2.26,0.43 2.27,0.55 2.26,0.37 2.27,0.33 2.27,0.36 2.26,0.55 2.27,0.09 2.26,-0.14 2.27,0.22 2.27,0.17 2.26,0.06 2.27,0.44 2.26,0.27 2.27,0.23 2.27,0.35 2.26,0.63 2.27,0 2.26,0.41 2.27,0.35 2.27,-0.22 2.26,0.38 2.27,0.03 2.26,1.26 2.27,0.22 2.27,-0.05 2.26,0.65 2.27,0.61"
           style="fill:none;stroke:#000000;stroke-opacity:1;stroke-width:1.06;stroke-linecap:butt;stroke-linejoin:round;stroke-miterlimit:1;stroke-dasharray:2.13,2.13;stroke-dashoffset:0"
           id="path3074" /><path
           d="m 41.22,37.28 124.63,0 0,113.94 -124.63,0 0,-113.94 z"
           style="fill:none;stroke:#7f7f7f;stroke-opacity:1;stroke-width:1.06;stroke-linecap:round;stroke-linejoin:round;stroke-miterlimit:10;stroke-dasharray:none"
           id="path3076" /></g></g><g
       id="g3078" /><g
       id="g3080"><g
         id="g3082"
         clip-path="url(#clipPath3084)"><path
           d="m 182.1,37.28 124.63,0 0,113.94 -124.63,0 0,-113.94 z"
           style="fill:#ffffff;fill-opacity:1;fill-rule:nonzero;stroke:none"
           id="path3088" /><path
           d="m 182.1,48.94 124.63,0"
           style="fill:none;stroke:#fafafa;stroke-opacity:1;stroke-width:1.06;stroke-linecap:butt;stroke-linejoin:round;stroke-miterlimit:10;stroke-dasharray:none"
           id="path3090" /><path
           d="m 182.1,75.36 124.63,0"
           style="fill:none;stroke:#fafafa;stroke-opacity:1;stroke-width:1.06;stroke-linecap:butt;stroke-linejoin:round;stroke-miterlimit:10;stroke-dasharray:none"
           id="path3092" /><path
           d="m 182.1,101.78 124.63,0"
           style="fill:none;stroke:#fafafa;stroke-opacity:1;stroke-width:1.06;stroke-linecap:butt;stroke-linejoin:round;stroke-miterlimit:10;stroke-dasharray:none"
           id="path3094" /><path
           d="m 182.1,128.21 124.63,0"
           style="fill:none;stroke:#fafafa;stroke-opacity:1;stroke-width:1.06;stroke-linecap:butt;stroke-linejoin:round;stroke-miterlimit:10;stroke-dasharray:none"
           id="path3096" /><path
           d="m 199.09,37.28 0,113.94"
           style="fill:none;stroke:#fafafa;stroke-opacity:1;stroke-width:1.06;stroke-linecap:butt;stroke-linejoin:round;stroke-miterlimit:10;stroke-dasharray:none"
           id="path3098" /><path
           d="m 221.75,37.28 0,113.94"
           style="fill:none;stroke:#fafafa;stroke-opacity:1;stroke-width:1.06;stroke-linecap:butt;stroke-linejoin:round;stroke-miterlimit:10;stroke-dasharray:none"
           id="path3100" /><path
           d="m 244.41,37.28 0,113.94"
           style="fill:none;stroke:#fafafa;stroke-opacity:1;stroke-width:1.06;stroke-linecap:butt;stroke-linejoin:round;stroke-miterlimit:10;stroke-dasharray:none"
           id="path3102" /><path
           d="m 267.07,37.28 0,113.94"
           style="fill:none;stroke:#fafafa;stroke-opacity:1;stroke-width:1.06;stroke-linecap:butt;stroke-linejoin:round;stroke-miterlimit:10;stroke-dasharray:none"
           id="path3104" /><path
           d="m 289.73,37.28 0,113.94"
           style="fill:none;stroke:#fafafa;stroke-opacity:1;stroke-width:1.06;stroke-linecap:butt;stroke-linejoin:round;stroke-miterlimit:10;stroke-dasharray:none"
           id="path3106" /><path
           d="m 182.1,62.15 124.63,0"
           style="fill:none;stroke:#e5e5e5;stroke-opacity:1;stroke-width:0.43;stroke-linecap:butt;stroke-linejoin:round;stroke-miterlimit:10;stroke-dasharray:none"
           id="path3108" /><path
           d="m 182.1,88.57 124.63,0"
           style="fill:none;stroke:#e5e5e5;stroke-opacity:1;stroke-width:0.43;stroke-linecap:butt;stroke-linejoin:round;stroke-miterlimit:10;stroke-dasharray:none"
           id="path3110" /><path
           d="m 182.1,114.99 124.63,0"
           style="fill:none;stroke:#e5e5e5;stroke-opacity:1;stroke-width:0.43;stroke-linecap:butt;stroke-linejoin:round;stroke-miterlimit:10;stroke-dasharray:none"
           id="path3112" /><path
           d="m 182.1,141.42 124.63,0"
           style="fill:none;stroke:#e5e5e5;stroke-opacity:1;stroke-width:0.43;stroke-linecap:butt;stroke-linejoin:round;stroke-miterlimit:10;stroke-dasharray:none"
           id="path3114" /><path
           d="m 187.76,37.28 0,113.94"
           style="fill:none;stroke:#e5e5e5;stroke-opacity:1;stroke-width:0.43;stroke-linecap:butt;stroke-linejoin:round;stroke-miterlimit:10;stroke-dasharray:none"
           id="path3116" /><path
           d="m 210.42,37.28 0,113.94"
           style="fill:none;stroke:#e5e5e5;stroke-opacity:1;stroke-width:0.43;stroke-linecap:butt;stroke-linejoin:round;stroke-miterlimit:10;stroke-dasharray:none"
           id="path3118" /><path
           d="m 233.08,37.28 0,113.94"
           style="fill:none;stroke:#e5e5e5;stroke-opacity:1;stroke-width:0.43;stroke-linecap:butt;stroke-linejoin:round;stroke-miterlimit:10;stroke-dasharray:none"
           id="path3120" /><path
           d="m 255.74,37.28 0,113.94"
           style="fill:none;stroke:#e5e5e5;stroke-opacity:1;stroke-width:0.43;stroke-linecap:butt;stroke-linejoin:round;stroke-miterlimit:10;stroke-dasharray:none"
           id="path3122" /><path
           d="m 278.4,37.28 0,113.94"
           style="fill:none;stroke:#e5e5e5;stroke-opacity:1;stroke-width:0.43;stroke-linecap:butt;stroke-linejoin:round;stroke-miterlimit:10;stroke-dasharray:none"
           id="path3124" /><path
           d="m 301.06,37.28 0,113.94"
           style="fill:none;stroke:#e5e5e5;stroke-opacity:1;stroke-width:0.43;stroke-linecap:butt;stroke-linejoin:round;stroke-miterlimit:10;stroke-dasharray:none"
           id="path3126" /><path
           d="m 187.76,42.46 2.27,0.31 2.27,0.16 2.26,0.17 2.27,-0.08 2.26,3.5 2.27,-1.08 2.27,-0.37 2.26,19.6 2.27,-1.03 2.26,1.56 2.27,-2.11 2.27,-0.11 2.26,1.11 2.27,2.86 2.26,1.42 2.27,6.42 2.27,3.67 2.26,4.95 2.27,2.89 2.26,2.86 2.27,3.34 2.27,2.34 2.26,1.97 2.27,2.67 2.26,3.58 2.27,0.75 2.27,2.17 2.26,2.12 2.27,5.28 2.26,5.64 2.27,2 2.27,-0.14 2.26,1.25 2.27,2.31 2.26,3.73 2.27,2.44 2.27,0.92 2.26,0.78 2.27,2.36 2.26,1.25 2.27,1.11 2.27,1.67 2.26,2.23 2.27,0.64 2.26,-1.09 2.27,3.39 2.27,-1.39 2.26,1.34 2.27,-0.06 2.26,2.28"
           style="fill:none;stroke:#000000;stroke-opacity:1;stroke-width:1.06;stroke-linecap:butt;stroke-linejoin:round;stroke-miterlimit:1;stroke-dasharray:none"
           id="path3128" /><path
           d="m 187.76,42.46 2.27,0.56 2.27,0.36 2.26,-0.08 2.27,0.13 2.26,3.56 2.27,-1.14 2.27,-0.64 2.26,8.68 2.27,0.78 2.26,-0.42 2.27,-1.2 2.27,-0.39 2.26,0.23 2.27,1.44 2.26,0.39 2.27,2.45 2.27,1.58 2.26,1.09 2.27,1.33 2.26,0.39 2.27,0.22 2.27,1.14 2.26,-0.47 2.27,1.03 2.26,0.33 2.27,-0.3 2.27,0.5 2.26,0.64 2.27,2.5 2.26,1.11 2.27,0.17 2.27,-0.25 2.26,-0.81 2.27,0.64 2.26,1.61 2.27,1.22 2.27,0.06 2.26,0.17 2.27,0.94 2.26,0.09 2.27,-0.53 2.27,0.64 2.26,-0.14 2.27,-0.75 2.26,-0.61 2.27,2.58 2.27,0.83 2.26,-0.58 2.27,0.28 2.26,1.42"
           style="fill:none;stroke:#000000;stroke-opacity:1;stroke-width:1.06;stroke-linecap:butt;stroke-linejoin:round;stroke-miterlimit:1;stroke-dasharray:2.13,2.13;stroke-dashoffset:0"
           id="path3130" /><path
           d="m 182.1,37.28 124.63,0 0,113.94 -124.63,0 0,-113.94 z"
           style="fill:none;stroke:#7f7f7f;stroke-opacity:1;stroke-width:1.06;stroke-linecap:round;stroke-linejoin:round;stroke-miterlimit:10;stroke-dasharray:none"
           id="path3132" /></g></g><g
       id="g3134" /><g
       id="g3136"><g
         id="g3138"
         clip-path="url(#clipPath3140)"><path
           d="m 328.54,37.28 124.63,0 0,113.94 -124.63,0 0,-113.94 z"
           style="fill:#ffffff;fill-opacity:1;fill-rule:nonzero;stroke:none"
           id="path3144" /><path
           d="m 328.54,43.31 124.63,0"
           style="fill:none;stroke:#fafafa;stroke-opacity:1;stroke-width:1.06;stroke-linecap:butt;stroke-linejoin:round;stroke-miterlimit:10;stroke-dasharray:none"
           id="path3146" /><path
           d="m 328.54,66.96 124.63,0"
           style="fill:none;stroke:#fafafa;stroke-opacity:1;stroke-width:1.06;stroke-linecap:butt;stroke-linejoin:round;stroke-miterlimit:10;stroke-dasharray:none"
           id="path3148" /><path
           d="m 328.54,90.61 124.63,0"
           style="fill:none;stroke:#fafafa;stroke-opacity:1;stroke-width:1.06;stroke-linecap:butt;stroke-linejoin:round;stroke-miterlimit:10;stroke-dasharray:none"
           id="path3150" /><path
           d="m 328.54,114.26 124.63,0"
           style="fill:none;stroke:#fafafa;stroke-opacity:1;stroke-width:1.06;stroke-linecap:butt;stroke-linejoin:round;stroke-miterlimit:10;stroke-dasharray:none"
           id="path3152" /><path
           d="m 328.54,137.91 124.63,0"
           style="fill:none;stroke:#fafafa;stroke-opacity:1;stroke-width:1.06;stroke-linecap:butt;stroke-linejoin:round;stroke-miterlimit:10;stroke-dasharray:none"
           id="path3154" /><path
           d="m 345.53,37.28 0,113.94"
           style="fill:none;stroke:#fafafa;stroke-opacity:1;stroke-width:1.06;stroke-linecap:butt;stroke-linejoin:round;stroke-miterlimit:10;stroke-dasharray:none"
           id="path3156" /><path
           d="m 368.19,37.28 0,113.94"
           style="fill:none;stroke:#fafafa;stroke-opacity:1;stroke-width:1.06;stroke-linecap:butt;stroke-linejoin:round;stroke-miterlimit:10;stroke-dasharray:none"
           id="path3158" /><path
           d="m 390.85,37.28 0,113.94"
           style="fill:none;stroke:#fafafa;stroke-opacity:1;stroke-width:1.06;stroke-linecap:butt;stroke-linejoin:round;stroke-miterlimit:10;stroke-dasharray:none"
           id="path3160" /><path
           d="m 413.51,37.28 0,113.94"
           style="fill:none;stroke:#fafafa;stroke-opacity:1;stroke-width:1.06;stroke-linecap:butt;stroke-linejoin:round;stroke-miterlimit:10;stroke-dasharray:none"
           id="path3162" /><path
           d="m 436.17,37.28 0,113.94"
           style="fill:none;stroke:#fafafa;stroke-opacity:1;stroke-width:1.06;stroke-linecap:butt;stroke-linejoin:round;stroke-miterlimit:10;stroke-dasharray:none"
           id="path3164" /><path
           d="m 328.54,55.13 124.63,0"
           style="fill:none;stroke:#e5e5e5;stroke-opacity:1;stroke-width:0.43;stroke-linecap:butt;stroke-linejoin:round;stroke-miterlimit:10;stroke-dasharray:none"
           id="path3166" /><path
           d="m 328.54,78.79 124.63,0"
           style="fill:none;stroke:#e5e5e5;stroke-opacity:1;stroke-width:0.43;stroke-linecap:butt;stroke-linejoin:round;stroke-miterlimit:10;stroke-dasharray:none"
           id="path3168" /><path
           d="m 328.54,102.44 124.63,0"
           style="fill:none;stroke:#e5e5e5;stroke-opacity:1;stroke-width:0.43;stroke-linecap:butt;stroke-linejoin:round;stroke-miterlimit:10;stroke-dasharray:none"
           id="path3170" /><path
           d="m 328.54,126.09 124.63,0"
           style="fill:none;stroke:#e5e5e5;stroke-opacity:1;stroke-width:0.43;stroke-linecap:butt;stroke-linejoin:round;stroke-miterlimit:10;stroke-dasharray:none"
           id="path3172" /><path
           d="m 328.54,149.74 124.63,0"
           style="fill:none;stroke:#e5e5e5;stroke-opacity:1;stroke-width:0.43;stroke-linecap:butt;stroke-linejoin:round;stroke-miterlimit:10;stroke-dasharray:none"
           id="path3174" /><path
           d="m 334.2,37.28 0,113.94"
           style="fill:none;stroke:#e5e5e5;stroke-opacity:1;stroke-width:0.43;stroke-linecap:butt;stroke-linejoin:round;stroke-miterlimit:10;stroke-dasharray:none"
           id="path3176" /><path
           d="m 356.86,37.28 0,113.94"
           style="fill:none;stroke:#e5e5e5;stroke-opacity:1;stroke-width:0.43;stroke-linecap:butt;stroke-linejoin:round;stroke-miterlimit:10;stroke-dasharray:none"
           id="path3178" /><path
           d="m 379.52,37.28 0,113.94"
           style="fill:none;stroke:#e5e5e5;stroke-opacity:1;stroke-width:0.43;stroke-linecap:butt;stroke-linejoin:round;stroke-miterlimit:10;stroke-dasharray:none"
           id="path3180" /><path
           d="m 402.18,37.28 0,113.94"
           style="fill:none;stroke:#e5e5e5;stroke-opacity:1;stroke-width:0.43;stroke-linecap:butt;stroke-linejoin:round;stroke-miterlimit:10;stroke-dasharray:none"
           id="path3182" /><path
           d="m 424.84,37.28 0,113.94"
           style="fill:none;stroke:#e5e5e5;stroke-opacity:1;stroke-width:0.43;stroke-linecap:butt;stroke-linejoin:round;stroke-miterlimit:10;stroke-dasharray:none"
           id="path3184" /><path
           d="m 447.5,37.28 0,113.94"
           style="fill:none;stroke:#e5e5e5;stroke-opacity:1;stroke-width:0.43;stroke-linecap:butt;stroke-linejoin:round;stroke-miterlimit:10;stroke-dasharray:none"
           id="path3186" /><path
           d="m 334.2,72.92 2.27,-2.67 2.26,7.07 2.27,6.28 2.27,7.14 2.26,6.09 2.27,8.69 2.26,7.85 2.27,6.71 2.27,3 2.26,3.27 2.27,3.15 2.26,1.55 2.27,3.57 2.27,2.64 2.26,0.51 2.27,-0.32 2.26,1.13 2.27,-0.5 2.27,1.99 2.26,2.65 2.27,-0.51 2.26,-0.86 2.27,1.62 2.27,1.28 2.26,0.82 2.27,-0.77 2.26,-0.44 2.27,-0.34 2.27,0.2 2.26,-1.88 2.27,-2.26 2.26,-0.2 2.27,-1.88 2.27,1.51 2.26,1.68 2.27,1.1 2.26,1.08 2.27,1.91 2.27,-1.98 2.26,-0.46 2.27,-1.75 2.26,-0.86 2.27,2.03 2.27,0.44 2.26,-1.15 2.27,4.99 2.26,-1.14 2.27,-1.17 2.27,1.24 2.26,0.62"
           style="fill:none;stroke:#000000;stroke-opacity:1;stroke-width:1.06;stroke-linecap:butt;stroke-linejoin:round;stroke-miterlimit:1;stroke-dasharray:none"
           id="path3188" /><path
           d="m 334.2,72.92 2.27,-23.82 2.26,-2.61 2.27,-2.46 2.27,-1.4 2.26,-0.17 2.27,0.7 2.26,0.61 2.27,0.63 2.27,0.07 2.26,0.38 2.27,0.16 2.26,0.09 2.27,0.45 2.27,0.7 2.26,0.17 2.27,-0.23 2.26,0.24 2.27,-0.13 2.27,0.63 2.26,0.38 2.27,-0.34 2.26,0.08 2.27,0.28 2.27,-0.03 2.26,0.04 2.27,0.15 2.26,0.46 2.27,-0.03 2.27,0.16 2.26,-0.5 2.27,-0.57 2.26,-0.01 2.27,-0.29 2.27,0.35 2.26,0.09 2.27,0 2.26,0.22 2.27,0.57 2.27,-0.55 2.26,-0.04 2.27,-0.1 2.26,-0.22 2.27,0.42 2.27,0.35 2.26,-0.19 2.27,1.72 2.26,-0.78 2.27,-0.25 2.27,0.63 2.26,0.61"
           style="fill:none;stroke:#000000;stroke-opacity:1;stroke-width:1.06;stroke-linecap:butt;stroke-linejoin:round;stroke-miterlimit:1;stroke-dasharray:2.13,2.13;stroke-dashoffset:0"
           id="path3190" /><path
           d="m 328.54,37.28 124.63,0 0,113.94 -124.63,0 0,-113.94 z"
           style="fill:none;stroke:#7f7f7f;stroke-opacity:1;stroke-width:1.06;stroke-linecap:round;stroke-linejoin:round;stroke-miterlimit:10;stroke-dasharray:none"
           id="path3192" /></g></g><g
       id="g3194" /><g
       id="g3196"><path
         d="m 41.22,151.22 124.63,0 0,14.38 -124.63,0 0,-14.38 z"
         style="fill:#ffffff;fill-opacity:1;fill-rule:nonzero;stroke:#7f7f7f;stroke-opacity:1;stroke-width:1.06;stroke-linecap:round;stroke-linejoin:round;stroke-miterlimit:10;stroke-dasharray:none"
         id="path3198" /><text
         transform="scale(1,-1)"
         id="text3200"
         x="47.610031"
         y="-154.82001"><tspan
           style="font-size:10px;font-variant:normal;font-weight:normal;writing-mode:lr-tb;fill:#000000;fill-opacity:1;fill-rule:nonzero;stroke:none;font-family:Helvetica;-inkscape-font-specification:Helvetica"
           x="47.610031"
           sodipodi:role="line"
           id="tspan3202"
           y="-154.82001">Biomass ratio A.alba/total</tspan></text>
</g><g
       id="g3204" /><g
       id="g3206"><path
         d="m 182.1,151.22 124.63,0 0,14.38 -124.63,0 0,-14.38 z"
         style="fill:#ffffff;fill-opacity:1;fill-rule:nonzero;stroke:#7f7f7f;stroke-opacity:1;stroke-width:1.06;stroke-linecap:round;stroke-linejoin:round;stroke-miterlimit:10;stroke-dasharray:none"
         id="path3208" /><text
         transform="scale(1,-1)"
         id="text3210"
         x="203.33995"
         y="-154.82001"><tspan
           style="font-size:10px;font-variant:normal;font-weight:normal;writing-mode:lr-tb;fill:#000000;fill-opacity:1;fill-rule:nonzero;stroke:none;font-family:Helvetica;-inkscape-font-specification:Helvetica"
           x="203.33995"
           y="-154.82001"
           sodipodi:role="line"
           id="tspan3212">Mature A.alba cells</tspan></text>
</g><g
       id="g3214" /><g
       id="g3216"><path
         d="m 328.54,151.22 124.63,0 0,14.38 -124.63,0 0,-14.38 z"
         style="fill:#ffffff;fill-opacity:1;fill-rule:nonzero;stroke:#7f7f7f;stroke-opacity:1;stroke-width:1.06;stroke-linecap:round;stroke-linejoin:round;stroke-miterlimit:10;stroke-dasharray:none"
         id="path3218" /><text
         transform="scale(1,-1)"
         id="text3220"
         x="339.96994"
         y="-154.82001"><tspan
           style="font-size:10px;font-variant:normal;font-weight:normal;writing-mode:lr-tb;fill:#000000;fill-opacity:1;fill-rule:nonzero;stroke:none;font-family:Helvetica;-inkscape-font-specification:Helvetica"
           x="339.96994"
           y="-154.82001"
           sodipodi:role="line"
           id="tspan3222">Individual A. alba trees</tspan></text>
</g><g
       id="g3224" /><g
       id="g3226" /><g
       id="g3228"><text
         transform="matrix(1,0,0,-1,28.58,61.57)"
         id="text3230"><tspan
           style="fill:#000000;fill-opacity:1;fill-rule:nonzero;stroke:none;font-family:Helvetica;font-variant:normal;font-weight:normal;font-size:10;writing-mode:lr;-inkscape-font-specification:Helvetica"
           x="0"
           y="0"
           id="tspan3232">5</tspan></text>
<text
         transform="matrix(1,0,0,-1,23.02,93.53)"
         id="text3234"><tspan
           style="fill:#000000;fill-opacity:1;fill-rule:nonzero;stroke:none;font-family:Helvetica;font-variant:normal;font-weight:normal;font-size:10;writing-mode:lr;-inkscape-font-specification:Helvetica"
           x="0 5.56"
           y="0"
           sodipodi:role="line"
           id="tspan3236">10</tspan></text>
<text
         transform="matrix(1,0,0,-1,23.02,125.49)"
         id="text3238"><tspan
           style="fill:#000000;fill-opacity:1;fill-rule:nonzero;stroke:none;font-family:Helvetica;font-variant:normal;font-weight:normal;font-size:10;writing-mode:lr;-inkscape-font-specification:Helvetica"
           x="0 5.56"
           y="0"
           sodipodi:role="line"
           id="tspan3240">15</tspan></text>
</g><g
       id="g3242" /><g
       id="g3244"><path
         d="m 36.97,65.16 4.25,0"
         style="fill:none;stroke:#000000;stroke-opacity:1;stroke-width:1.06;stroke-linecap:butt;stroke-linejoin:round;stroke-miterlimit:10;stroke-dasharray:none"
         id="path3246" /><path
         d="m 36.97,97.12 4.25,0"
         style="fill:none;stroke:#000000;stroke-opacity:1;stroke-width:1.06;stroke-linecap:butt;stroke-linejoin:round;stroke-miterlimit:10;stroke-dasharray:none"
         id="path3248" /><path
         d="m 36.97,129.08 4.25,0"
         style="fill:none;stroke:#000000;stroke-opacity:1;stroke-width:1.06;stroke-linecap:butt;stroke-linejoin:round;stroke-miterlimit:10;stroke-dasharray:none"
         id="path3250" /></g><g
       id="g3252" /><g
       id="g3254" /><g
       id="g3256" /><g
       id="g3258" /><g
       id="g3260" /><g
       id="g3262"><text
         transform="matrix(1,0,0,-1,169.45,58.56)"
         id="text3264"><tspan
           style="fill:#000000;fill-opacity:1;fill-rule:nonzero;stroke:none;font-family:Helvetica;font-variant:normal;font-weight:normal;font-size:10;writing-mode:lr;-inkscape-font-specification:Helvetica"
           x="0"
           y="0"
           id="tspan3266">2</tspan></text>
<text
         transform="matrix(1,0,0,-1,169.45,84.98)"
         id="text3268"><tspan
           style="fill:#000000;fill-opacity:1;fill-rule:nonzero;stroke:none;font-family:Helvetica;font-variant:normal;font-weight:normal;font-size:10;writing-mode:lr;-inkscape-font-specification:Helvetica"
           x="0"
           y="0"
           id="tspan3270">4</tspan></text>
<text
         transform="matrix(1,0,0,-1,169.45,111.4)"
         id="text3272"><tspan
           style="fill:#000000;fill-opacity:1;fill-rule:nonzero;stroke:none;font-family:Helvetica;font-variant:normal;font-weight:normal;font-size:10;writing-mode:lr;-inkscape-font-specification:Helvetica"
           x="0"
           y="0"
           id="tspan3274">6</tspan></text>
<text
         transform="matrix(1,0,0,-1,169.45,137.83)"
         id="text3276"><tspan
           style="fill:#000000;fill-opacity:1;fill-rule:nonzero;stroke:none;font-family:Helvetica;font-variant:normal;font-weight:normal;font-size:10;writing-mode:lr;-inkscape-font-specification:Helvetica"
           x="0"
           y="0"
           id="tspan3278">8</tspan></text>
</g><g
       id="g3280" /><g
       id="g3282"><path
         d="m 177.85,62.15 4.25,0"
         style="fill:none;stroke:#000000;stroke-opacity:1;stroke-width:1.06;stroke-linecap:butt;stroke-linejoin:round;stroke-miterlimit:10;stroke-dasharray:none"
         id="path3284" /><path
         d="m 177.85,88.57 4.25,0"
         style="fill:none;stroke:#000000;stroke-opacity:1;stroke-width:1.06;stroke-linecap:butt;stroke-linejoin:round;stroke-miterlimit:10;stroke-dasharray:none"
         id="path3286" /><path
         d="m 177.85,114.99 4.25,0"
         style="fill:none;stroke:#000000;stroke-opacity:1;stroke-width:1.06;stroke-linecap:butt;stroke-linejoin:round;stroke-miterlimit:10;stroke-dasharray:none"
         id="path3288" /><path
         d="m 177.85,141.42 4.25,0"
         style="fill:none;stroke:#000000;stroke-opacity:1;stroke-width:1.06;stroke-linecap:butt;stroke-linejoin:round;stroke-miterlimit:10;stroke-dasharray:none"
         id="path3290" /></g><g
       id="g3292" /><g
       id="g3294" /><g
       id="g3296" /><g
       id="g3298" /><g
       id="g3300" /><g
       id="g3302"><text
         transform="matrix(1,0,0,-1,310.33,51.54)"
         id="text3304"><tspan
           style="fill:#000000;fill-opacity:1;fill-rule:nonzero;stroke:none;font-family:Helvetica;font-variant:normal;font-weight:normal;font-size:10;writing-mode:lr;-inkscape-font-specification:Helvetica"
           x="0 5.56"
           y="0"
           sodipodi:role="line"
           id="tspan3306">10</tspan></text>
<text
         transform="matrix(1,0,0,-1,310.33,75.2)"
         id="text3308"><tspan
           style="fill:#000000;fill-opacity:1;fill-rule:nonzero;stroke:none;font-family:Helvetica;font-variant:normal;font-weight:normal;font-size:10;writing-mode:lr;-inkscape-font-specification:Helvetica"
           x="0 5.56"
           y="0"
           sodipodi:role="line"
           id="tspan3310">20</tspan></text>
<text
         transform="matrix(1,0,0,-1,310.33,98.85)"
         id="text3312"><tspan
           style="fill:#000000;fill-opacity:1;fill-rule:nonzero;stroke:none;font-family:Helvetica;font-variant:normal;font-weight:normal;font-size:10;writing-mode:lr;-inkscape-font-specification:Helvetica"
           x="0 5.56"
           y="0"
           sodipodi:role="line"
           id="tspan3314">30</tspan></text>
<text
         transform="matrix(1,0,0,-1,310.33,122.5)"
         id="text3316"><tspan
           style="fill:#000000;fill-opacity:1;fill-rule:nonzero;stroke:none;font-family:Helvetica;font-variant:normal;font-weight:normal;font-size:10;writing-mode:lr;-inkscape-font-specification:Helvetica"
           x="0 5.56"
           y="0"
           sodipodi:role="line"
           id="tspan3318">40</tspan></text>
<text
         transform="matrix(1,0,0,-1,310.33,146.15)"
         id="text3320"><tspan
           style="fill:#000000;fill-opacity:1;fill-rule:nonzero;stroke:none;font-family:Helvetica;font-variant:normal;font-weight:normal;font-size:10;writing-mode:lr;-inkscape-font-specification:Helvetica"
           x="0 5.56"
           y="0"
           sodipodi:role="line"
           id="tspan3322">50</tspan></text>
</g><g
       id="g3324" /><g
       id="g3326"><path
         d="m 324.28,55.13 4.26,0"
         style="fill:none;stroke:#000000;stroke-opacity:1;stroke-width:1.06;stroke-linecap:butt;stroke-linejoin:round;stroke-miterlimit:10;stroke-dasharray:none"
         id="path3328" /><path
         d="m 324.28,78.79 4.26,0"
         style="fill:none;stroke:#000000;stroke-opacity:1;stroke-width:1.06;stroke-linecap:butt;stroke-linejoin:round;stroke-miterlimit:10;stroke-dasharray:none"
         id="path3330" /><path
         d="m 324.28,102.44 4.26,0"
         style="fill:none;stroke:#000000;stroke-opacity:1;stroke-width:1.06;stroke-linecap:butt;stroke-linejoin:round;stroke-miterlimit:10;stroke-dasharray:none"
         id="path3332" /><path
         d="m 324.28,126.09 4.26,0"
         style="fill:none;stroke:#000000;stroke-opacity:1;stroke-width:1.06;stroke-linecap:butt;stroke-linejoin:round;stroke-miterlimit:10;stroke-dasharray:none"
         id="path3334" /><path
         d="m 324.28,149.74 4.26,0"
         style="fill:none;stroke:#000000;stroke-opacity:1;stroke-width:1.06;stroke-linecap:butt;stroke-linejoin:round;stroke-miterlimit:10;stroke-dasharray:none"
         id="path3336" /></g><g
       id="g3338" /><g
       id="g3340" /><g
       id="g3342" /><g
       id="g3344" /><g
       id="g3346" /><g
       id="g3348"><path
         d="m 46.89,33.03 0,4.25"
         style="fill:none;stroke:#000000;stroke-opacity:1;stroke-width:1.06;stroke-linecap:butt;stroke-linejoin:round;stroke-miterlimit:10;stroke-dasharray:none"
         id="path3350" /><path
         d="m 69.55,33.03 0,4.25"
         style="fill:none;stroke:#000000;stroke-opacity:1;stroke-width:1.06;stroke-linecap:butt;stroke-linejoin:round;stroke-miterlimit:10;stroke-dasharray:none"
         id="path3352" /><path
         d="m 92.21,33.03 0,4.25"
         style="fill:none;stroke:#000000;stroke-opacity:1;stroke-width:1.06;stroke-linecap:butt;stroke-linejoin:round;stroke-miterlimit:10;stroke-dasharray:none"
         id="path3354" /><path
         d="m 114.87,33.03 0,4.25"
         style="fill:none;stroke:#000000;stroke-opacity:1;stroke-width:1.06;stroke-linecap:butt;stroke-linejoin:round;stroke-miterlimit:10;stroke-dasharray:none"
         id="path3356" /><path
         d="m 137.53,33.03 0,4.25"
         style="fill:none;stroke:#000000;stroke-opacity:1;stroke-width:1.06;stroke-linecap:butt;stroke-linejoin:round;stroke-miterlimit:10;stroke-dasharray:none"
         id="path3358" /><path
         d="m 160.19,33.03 0,4.25"
         style="fill:none;stroke:#000000;stroke-opacity:1;stroke-width:1.06;stroke-linecap:butt;stroke-linejoin:round;stroke-miterlimit:10;stroke-dasharray:none"
         id="path3360" /></g><g
       id="g3362" /><g
       id="g3364"><text
         transform="matrix(1,0,0,-1,44.11,23.02)"
         id="text3366"><tspan
           style="fill:#000000;fill-opacity:1;fill-rule:nonzero;stroke:none;font-family:Helvetica;font-variant:normal;font-weight:normal;font-size:10;writing-mode:lr;-inkscape-font-specification:Helvetica"
           x="0"
           y="0"
           id="tspan3368">0</tspan></text>
<text
         transform="matrix(1,0,0,-1,61.21,23.02)"
         id="text3370"><tspan
           style="fill:#000000;fill-opacity:1;fill-rule:nonzero;stroke:none;font-family:Helvetica;font-variant:normal;font-weight:normal;font-size:10;writing-mode:lr;-inkscape-font-specification:Helvetica"
           x="0 5.56 11.12"
           y="0"
           sodipodi:role="line"
           id="tspan3372">100</tspan></text>
<text
         transform="matrix(1,0,0,-1,83.87,23.02)"
         id="text3374"><tspan
           style="fill:#000000;fill-opacity:1;fill-rule:nonzero;stroke:none;font-family:Helvetica;font-variant:normal;font-weight:normal;font-size:10;writing-mode:lr;-inkscape-font-specification:Helvetica"
           x="0 5.56 11.12"
           y="0"
           sodipodi:role="line"
           id="tspan3376">200</tspan></text>
<text
         transform="matrix(1,0,0,-1,106.53,23.02)"
         id="text3378"><tspan
           style="fill:#000000;fill-opacity:1;fill-rule:nonzero;stroke:none;font-family:Helvetica;font-variant:normal;font-weight:normal;font-size:10;writing-mode:lr;-inkscape-font-specification:Helvetica"
           x="0 5.56 11.12"
           y="0"
           sodipodi:role="line"
           id="tspan3380">300</tspan></text>
<text
         transform="matrix(1,0,0,-1,129.19,23.02)"
         id="text3382"><tspan
           style="fill:#000000;fill-opacity:1;fill-rule:nonzero;stroke:none;font-family:Helvetica;font-variant:normal;font-weight:normal;font-size:10;writing-mode:lr;-inkscape-font-specification:Helvetica"
           x="0 5.56 11.12"
           y="0"
           sodipodi:role="line"
           id="tspan3384">400</tspan></text>
<text
         transform="matrix(1,0,0,-1,151.85,23.02)"
         id="text3386"><tspan
           style="fill:#000000;fill-opacity:1;fill-rule:nonzero;stroke:none;font-family:Helvetica;font-variant:normal;font-weight:normal;font-size:10;writing-mode:lr;-inkscape-font-specification:Helvetica"
           x="0 5.56 11.12"
           y="0"
           sodipodi:role="line"
           id="tspan3388">500</tspan></text>
</g><g
       id="g3390" /><g
       id="g3392" /><g
       id="g3394" /><g
       id="g3396" /><g
       id="g3398" /><g
       id="g3400"><path
         d="m 187.76,33.03 0,4.25"
         style="fill:none;stroke:#000000;stroke-opacity:1;stroke-width:1.06;stroke-linecap:butt;stroke-linejoin:round;stroke-miterlimit:10;stroke-dasharray:none"
         id="path3402" /><path
         d="m 210.42,33.03 0,4.25"
         style="fill:none;stroke:#000000;stroke-opacity:1;stroke-width:1.06;stroke-linecap:butt;stroke-linejoin:round;stroke-miterlimit:10;stroke-dasharray:none"
         id="path3404" /><path
         d="m 233.08,33.03 0,4.25"
         style="fill:none;stroke:#000000;stroke-opacity:1;stroke-width:1.06;stroke-linecap:butt;stroke-linejoin:round;stroke-miterlimit:10;stroke-dasharray:none"
         id="path3406" /><path
         d="m 255.74,33.03 0,4.25"
         style="fill:none;stroke:#000000;stroke-opacity:1;stroke-width:1.06;stroke-linecap:butt;stroke-linejoin:round;stroke-miterlimit:10;stroke-dasharray:none"
         id="path3408" /><path
         d="m 278.4,33.03 0,4.25"
         style="fill:none;stroke:#000000;stroke-opacity:1;stroke-width:1.06;stroke-linecap:butt;stroke-linejoin:round;stroke-miterlimit:10;stroke-dasharray:none"
         id="path3410" /><path
         d="m 301.06,33.03 0,4.25"
         style="fill:none;stroke:#000000;stroke-opacity:1;stroke-width:1.06;stroke-linecap:butt;stroke-linejoin:round;stroke-miterlimit:10;stroke-dasharray:none"
         id="path3412" /></g><g
       id="g3414" /><g
       id="g3416"><text
         transform="matrix(1,0,0,-1,184.98,23.02)"
         id="text3418"><tspan
           style="fill:#000000;fill-opacity:1;fill-rule:nonzero;stroke:none;font-family:Helvetica;font-variant:normal;font-weight:normal;font-size:10;writing-mode:lr;-inkscape-font-specification:Helvetica"
           x="0"
           y="0"
           id="tspan3420">0</tspan></text>
<text
         transform="matrix(1,0,0,-1,202.08,23.02)"
         id="text3422"><tspan
           style="fill:#000000;fill-opacity:1;fill-rule:nonzero;stroke:none;font-family:Helvetica;font-variant:normal;font-weight:normal;font-size:10;writing-mode:lr;-inkscape-font-specification:Helvetica"
           x="0 5.56 11.12"
           y="0"
           sodipodi:role="line"
           id="tspan3424">100</tspan></text>
<text
         transform="matrix(1,0,0,-1,224.74,23.02)"
         id="text3426"><tspan
           style="fill:#000000;fill-opacity:1;fill-rule:nonzero;stroke:none;font-family:Helvetica;font-variant:normal;font-weight:normal;font-size:10;writing-mode:lr;-inkscape-font-specification:Helvetica"
           x="0 5.56 11.12"
           y="0"
           sodipodi:role="line"
           id="tspan3428">200</tspan></text>
<text
         transform="matrix(1,0,0,-1,247.4,23.02)"
         id="text3430"><tspan
           style="fill:#000000;fill-opacity:1;fill-rule:nonzero;stroke:none;font-family:Helvetica;font-variant:normal;font-weight:normal;font-size:10;writing-mode:lr;-inkscape-font-specification:Helvetica"
           x="0 5.56 11.12"
           y="0"
           sodipodi:role="line"
           id="tspan3432">300</tspan></text>
<text
         transform="matrix(1,0,0,-1,270.06,23.02)"
         id="text3434"><tspan
           style="fill:#000000;fill-opacity:1;fill-rule:nonzero;stroke:none;font-family:Helvetica;font-variant:normal;font-weight:normal;font-size:10;writing-mode:lr;-inkscape-font-specification:Helvetica"
           x="0 5.56 11.12"
           y="0"
           sodipodi:role="line"
           id="tspan3436">400</tspan></text>
<text
         transform="matrix(1,0,0,-1,292.72,23.02)"
         id="text3438"><tspan
           style="fill:#000000;fill-opacity:1;fill-rule:nonzero;stroke:none;font-family:Helvetica;font-variant:normal;font-weight:normal;font-size:10;writing-mode:lr;-inkscape-font-specification:Helvetica"
           x="0 5.56 11.12"
           y="0"
           sodipodi:role="line"
           id="tspan3440">500</tspan></text>
</g><g
       id="g3442" /><g
       id="g3444" /><g
       id="g3446" /><g
       id="g3448" /><g
       id="g3450" /><g
       id="g3452"><path
         d="m 334.2,33.03 0,4.25"
         style="fill:none;stroke:#000000;stroke-opacity:1;stroke-width:1.06;stroke-linecap:butt;stroke-linejoin:round;stroke-miterlimit:10;stroke-dasharray:none"
         id="path3454" /><path
         d="m 356.86,33.03 0,4.25"
         style="fill:none;stroke:#000000;stroke-opacity:1;stroke-width:1.06;stroke-linecap:butt;stroke-linejoin:round;stroke-miterlimit:10;stroke-dasharray:none"
         id="path3456" /><path
         d="m 379.52,33.03 0,4.25"
         style="fill:none;stroke:#000000;stroke-opacity:1;stroke-width:1.06;stroke-linecap:butt;stroke-linejoin:round;stroke-miterlimit:10;stroke-dasharray:none"
         id="path3458" /><path
         d="m 402.18,33.03 0,4.25"
         style="fill:none;stroke:#000000;stroke-opacity:1;stroke-width:1.06;stroke-linecap:butt;stroke-linejoin:round;stroke-miterlimit:10;stroke-dasharray:none"
         id="path3460" /><path
         d="m 424.84,33.03 0,4.25"
         style="fill:none;stroke:#000000;stroke-opacity:1;stroke-width:1.06;stroke-linecap:butt;stroke-linejoin:round;stroke-miterlimit:10;stroke-dasharray:none"
         id="path3462" /><path
         d="m 447.5,33.03 0,4.25"
         style="fill:none;stroke:#000000;stroke-opacity:1;stroke-width:1.06;stroke-linecap:butt;stroke-linejoin:round;stroke-miterlimit:10;stroke-dasharray:none"
         id="path3464" /></g><g
       id="g3466" /><g
       id="g3468"><text
         transform="matrix(1,0,0,-1,331.42,23.02)"
         id="text3470"><tspan
           style="fill:#000000;fill-opacity:1;fill-rule:nonzero;stroke:none;font-family:Helvetica;font-variant:normal;font-weight:normal;font-size:10;writing-mode:lr;-inkscape-font-specification:Helvetica"
           x="0"
           y="0"
           id="tspan3472">0</tspan></text>
<text
         transform="matrix(1,0,0,-1,348.52,23.02)"
         id="text3474"><tspan
           style="fill:#000000;fill-opacity:1;fill-rule:nonzero;stroke:none;font-family:Helvetica;font-variant:normal;font-weight:normal;font-size:10;writing-mode:lr;-inkscape-font-specification:Helvetica"
           x="0 5.56 11.12"
           y="0"
           sodipodi:role="line"
           id="tspan3476">100</tspan></text>
<text
         transform="matrix(1,0,0,-1,371.18,23.02)"
         id="text3478"><tspan
           style="fill:#000000;fill-opacity:1;fill-rule:nonzero;stroke:none;font-family:Helvetica;font-variant:normal;font-weight:normal;font-size:10;writing-mode:lr;-inkscape-font-specification:Helvetica"
           x="0 5.56 11.12"
           y="0"
           sodipodi:role="line"
           id="tspan3480">200</tspan></text>
<text
         transform="matrix(1,0,0,-1,393.84,23.02)"
         id="text3482"><tspan
           style="fill:#000000;fill-opacity:1;fill-rule:nonzero;stroke:none;font-family:Helvetica;font-variant:normal;font-weight:normal;font-size:10;writing-mode:lr;-inkscape-font-specification:Helvetica"
           x="0 5.56 11.12"
           y="0"
           sodipodi:role="line"
           id="tspan3484">300</tspan></text>
<text
         transform="matrix(1,0,0,-1,416.5,23.02)"
         id="text3486"><tspan
           style="fill:#000000;fill-opacity:1;fill-rule:nonzero;stroke:none;font-family:Helvetica;font-variant:normal;font-weight:normal;font-size:10;writing-mode:lr;-inkscape-font-specification:Helvetica"
           x="0 5.56 11.12"
           y="0"
           sodipodi:role="line"
           id="tspan3488">400</tspan></text>
<text
         transform="matrix(1,0,0,-1,439.16,23.02)"
         id="text3490"><tspan
           style="fill:#000000;fill-opacity:1;fill-rule:nonzero;stroke:none;font-family:Helvetica;font-variant:normal;font-weight:normal;font-size:10;writing-mode:lr;-inkscape-font-specification:Helvetica"
           x="0 5.56 11.12"
           y="0"
           sodipodi:role="line"
           id="tspan3492">500</tspan></text>
</g><g
       id="g3494" /><g
       id="g3496" /><g
       id="g3498" /><g
       id="g3500" /><g
       id="g3502"><text
         transform="matrix(1,0,0,-1,213.92,10.8)"
         id="text3504"><tspan
           style="fill:#000000;fill-opacity:1;fill-rule:nonzero;stroke:none;font-family:Helvetica;font-variant:normal;font-weight:normal;font-size:12;writing-mode:lr;-inkscape-font-specification:Helvetica"
           x="0 8.664 15.336 19.212 25.884 29.22 31.884 38.556 45.228 48.564 52.56 58.56 62.556"
           y="0"
           sodipodi:role="line"
           id="tspan3506">Duration (yr)</tspan></text>
</g><g
       id="g3508" /><g
       id="g3510"><text
         transform="matrix(0,1,1,0,19.42,61.7)"
         id="text3512"><tspan
           style="fill:#000000;fill-opacity:1;fill-rule:nonzero;stroke:none;font-family:Helvetica;font-variant:normal;font-weight:normal;font-size:12;writing-mode:lr;-inkscape-font-specification:Helvetica"
           x="0 7.164 13.836 18.012 20.676 27.348 33.78 36.444 43.116 46.452 50.448 61.116"
           y="0"
           sodipodi:role="line"
           id="tspan3514">Variable (%)</tspan></text>
</g><g
       id="g3516" /><g
       id="g3518" /><g
       id="g3520" /><g
       id="g3522" /><g
       id="g3524" /><g
       id="g3526"><path
         d="m 463.2,70.56 88.36,0 0,47.38 -88.36,0 0,-47.38 z"
         style="fill:#ffffff;fill-opacity:1;fill-rule:nonzero;stroke:none"
         id="path3528" /></g><g
       id="g3530" /><g
       id="g3532" /><g
       id="g3534" /><g
       id="g3536"><path
         d="m 467.45,92.09 17.28,0 0,17.28 -17.28,0 0,-17.28 z"
         style="fill:#ffffff;fill-opacity:1;fill-rule:nonzero;stroke:#cccccc;stroke-opacity:1;stroke-width:1.06;stroke-linecap:round;stroke-linejoin:round;stroke-miterlimit:10;stroke-dasharray:none"
         id="path3538" /></g><g
       id="g3540" /><g
       id="g3542"><path
         d="m 469.18,100.73 13.83,0"
         style="fill:none;stroke:#000000;stroke-opacity:1;stroke-width:1.06;stroke-linecap:butt;stroke-linejoin:round;stroke-miterlimit:10;stroke-dasharray:none"
         id="path3544" /></g><g
       id="g3546" /><g
       id="g3548"><path
         d="m 467.45,74.81 17.28,0 0,17.28 -17.28,0 0,-17.28 z"
         style="fill:#ffffff;fill-opacity:1;fill-rule:nonzero;stroke:#cccccc;stroke-opacity:1;stroke-width:1.06;stroke-linecap:round;stroke-linejoin:round;stroke-miterlimit:10;stroke-dasharray:none"
         id="path3550" /></g><g
       id="g3552" /><g
       id="g3554"><path
         d="m 469.18,83.45 13.83,0"
         style="fill:none;stroke:#000000;stroke-opacity:1;stroke-width:1.06;stroke-linecap:butt;stroke-linejoin:round;stroke-miterlimit:10;stroke-dasharray:2.13,2.13;stroke-dashoffset:0"
         id="path3556" /></g><g
       id="g3558" /><g
       id="g3560"><text
         transform="matrix(1,0,0,-1,486.89,97.14)"
         id="text3562"><tspan
           style="fill:#000000;fill-opacity:1;fill-rule:nonzero;stroke:none;font-family:Helvetica;font-variant:normal;font-weight:normal;font-size:10;writing-mode:lr;-inkscape-font-specification:Helvetica"
           x="0 5.56 11.12 13.9 19.46 22.79 28.2 35.42 40.42 42.64 48.2"
           y="0"
           sodipodi:role="line"
           id="tspan3564">no browsing</tspan></text>
</g><g
       id="g3566" /><g
       id="g3568"><text
         transform="matrix(1,0,0,-1,486.89,79.86)"
         id="text3570"><tspan
           style="fill:#000000;fill-opacity:1;fill-rule:nonzero;stroke:none;font-family:Helvetica;font-variant:normal;font-weight:normal;font-size:10;writing-mode:lr;-inkscape-font-specification:Helvetica"
           x="0 7.22 9.44 12.22 17.78 20.56 26.12 29.45 34.86 42.08 47.08 49.3 54.86"
           y="0"
           sodipodi:role="line"
           id="tspan3572">with browsing</tspan></text>
</g><g
       id="g3574" /><g
       id="g3576" /><g
       id="g3578" /><g
       id="g3580" /><g
       id="g3582" /><g
       id="g3584" /><g
       id="g3586" /><g
       id="g3588" /><g
       id="g3590" /><g
       id="g3592" /><g
       id="g3594" /><g
       id="g3596" /></g></svg>