<?xml version="1.0" encoding="UTF-8" standalone="no"?>
<!-- Created with Inkscape (http://www.inkscape.org/) -->

<svg
   xmlns:dc="http://purl.org/dc/elements/1.1/"
   xmlns:cc="http://creativecommons.org/ns#"
   xmlns:rdf="http://www.w3.org/1999/02/22-rdf-syntax-ns#"
   xmlns:svg="http://www.w3.org/2000/svg"
   xmlns="http://www.w3.org/2000/svg"
   xmlns:sodipodi="http://sodipodi.sourceforge.net/DTD/sodipodi-0.dtd"
   xmlns:inkscape="http://www.inkscape.org/namespaces/inkscape"
   id="svg3073"
   version="1.1"
   inkscape:version="0.48.4 r9939"
   width="720"
   height="225"
   xml:space="preserve"
   sodipodi:docname="np_summary.pdf"><metadata
     id="metadata3079"><rdf:RDF><cc:Work
         rdf:about=""><dc:format>image/svg+xml</dc:format><dc:type
           rdf:resource="http://purl.org/dc/dcmitype/StillImage" /><dc:title></dc:title></cc:Work></rdf:RDF></metadata><defs
     id="defs3077"><clipPath
       clipPathUnits="userSpaceOnUse"
       id="clipPath3099"><path
         d="m 41.22,37.28 122.78,0 0,113.94 -122.78,0 0,-113.94 z"
         id="path3101" /></clipPath><clipPath
       clipPathUnits="userSpaceOnUse"
       id="clipPath3153"><path
         d="m 185.81,37.28 122.78,0 0,113.94 -122.78,0 0,-113.94 z"
         id="path3155" /></clipPath><clipPath
       clipPathUnits="userSpaceOnUse"
       id="clipPath3201"><path
         d="m 330.39,37.28 122.78,0 0,113.94 -122.78,0 0,-113.94 z"
         id="path3203" /></clipPath></defs><sodipodi:namedview
     pagecolor="#ffffff"
     bordercolor="#666666"
     borderopacity="1"
     objecttolerance="10"
     gridtolerance="10"
     guidetolerance="10"
     inkscape:pageopacity="0"
     inkscape:pageshadow="2"
     inkscape:window-width="1584"
     inkscape:window-height="738"
     id="namedview3075"
     showgrid="false"
     inkscape:zoom="1.8777778"
     inkscape:cx="351.77446"
     inkscape:cy="121.23854"
     inkscape:window-x="65"
     inkscape:window-y="24"
     inkscape:window-maximized="0"
     inkscape:current-layer="g3081" /><g
     id="g3081"
     inkscape:groupmode="layer"
     inkscape:label="np_summary"
     transform="matrix(1.25,0,0,-1.25,0,225)"><g
       id="g3083" /><g
       id="g3085" /><g
       id="g3087" /><g
       id="g3089"><path
         d="M 0,0 576,0 576,180 0,180 0,0 z"
         style="fill:#ffffff;fill-opacity:1;fill-rule:nonzero;stroke:#ffffff;stroke-opacity:1;stroke-width:1.06;stroke-linecap:round;stroke-linejoin:round;stroke-miterlimit:10;stroke-dasharray:none"
         id="path3091" /></g><g
       id="g3093" /><g
       id="g3095"><g
         id="g3097"
         clip-path="url(#clipPath3099)"><path
           d="m 41.22,37.28 122.78,0 0,113.94 -122.78,0 0,-113.94 z"
           style="fill:#ffffff;fill-opacity:1;fill-rule:nonzero;stroke:none"
           id="path3103" /><path
           d="m 41.22,53.61 122.78,0"
           style="fill:none;stroke:#fafafa;stroke-opacity:1;stroke-width:1.06;stroke-linecap:butt;stroke-linejoin:round;stroke-miterlimit:10;stroke-dasharray:none"
           id="path3105" /><path
           d="m 41.22,78.83 122.78,0"
           style="fill:none;stroke:#fafafa;stroke-opacity:1;stroke-width:1.06;stroke-linecap:butt;stroke-linejoin:round;stroke-miterlimit:10;stroke-dasharray:none"
           id="path3107" /><path
           d="m 41.22,104.05 122.78,0"
           style="fill:none;stroke:#fafafa;stroke-opacity:1;stroke-width:1.06;stroke-linecap:butt;stroke-linejoin:round;stroke-miterlimit:10;stroke-dasharray:none"
           id="path3109" /><path
           d="m 41.22,129.28 122.78,0"
           style="fill:none;stroke:#fafafa;stroke-opacity:1;stroke-width:1.06;stroke-linecap:butt;stroke-linejoin:round;stroke-miterlimit:10;stroke-dasharray:none"
           id="path3111" /><path
           d="m 60.76,37.28 0,113.94"
           style="fill:none;stroke:#fafafa;stroke-opacity:1;stroke-width:1.06;stroke-linecap:butt;stroke-linejoin:round;stroke-miterlimit:10;stroke-dasharray:none"
           id="path3113" /><path
           d="m 88.66,37.28 0,113.94"
           style="fill:none;stroke:#fafafa;stroke-opacity:1;stroke-width:1.06;stroke-linecap:butt;stroke-linejoin:round;stroke-miterlimit:10;stroke-dasharray:none"
           id="path3115" /><path
           d="m 116.56,37.28 0,113.94"
           style="fill:none;stroke:#fafafa;stroke-opacity:1;stroke-width:1.06;stroke-linecap:butt;stroke-linejoin:round;stroke-miterlimit:10;stroke-dasharray:none"
           id="path3117" /><path
           d="m 144.47,37.28 0,113.94"
           style="fill:none;stroke:#fafafa;stroke-opacity:1;stroke-width:1.06;stroke-linecap:butt;stroke-linejoin:round;stroke-miterlimit:10;stroke-dasharray:none"
           id="path3119" /><path
           d="M 41.22,41 164,41"
           style="fill:none;stroke:#e5e5e5;stroke-opacity:1;stroke-width:0.43;stroke-linecap:butt;stroke-linejoin:round;stroke-miterlimit:10;stroke-dasharray:none"
           id="path3121" /><path
           d="m 41.22,66.22 122.78,0"
           style="fill:none;stroke:#e5e5e5;stroke-opacity:1;stroke-width:0.43;stroke-linecap:butt;stroke-linejoin:round;stroke-miterlimit:10;stroke-dasharray:none"
           id="path3123" /><path
           d="m 41.22,91.44 122.78,0"
           style="fill:none;stroke:#e5e5e5;stroke-opacity:1;stroke-width:0.43;stroke-linecap:butt;stroke-linejoin:round;stroke-miterlimit:10;stroke-dasharray:none"
           id="path3125" /><path
           d="m 41.22,116.67 122.78,0"
           style="fill:none;stroke:#e5e5e5;stroke-opacity:1;stroke-width:0.43;stroke-linecap:butt;stroke-linejoin:round;stroke-miterlimit:10;stroke-dasharray:none"
           id="path3127" /><path
           d="m 41.22,141.89 122.78,0"
           style="fill:none;stroke:#e5e5e5;stroke-opacity:1;stroke-width:0.43;stroke-linecap:butt;stroke-linejoin:round;stroke-miterlimit:10;stroke-dasharray:none"
           id="path3129" /><path
           d="m 46.8,37.28 0,113.94"
           style="fill:none;stroke:#e5e5e5;stroke-opacity:1;stroke-width:0.43;stroke-linecap:butt;stroke-linejoin:round;stroke-miterlimit:10;stroke-dasharray:none"
           id="path3131" /><path
           d="m 74.71,37.28 0,113.94"
           style="fill:none;stroke:#e5e5e5;stroke-opacity:1;stroke-width:0.43;stroke-linecap:butt;stroke-linejoin:round;stroke-miterlimit:10;stroke-dasharray:none"
           id="path3133" /><path
           d="m 102.61,37.28 0,113.94"
           style="fill:none;stroke:#e5e5e5;stroke-opacity:1;stroke-width:0.43;stroke-linecap:butt;stroke-linejoin:round;stroke-miterlimit:10;stroke-dasharray:none"
           id="path3135" /><path
           d="m 130.51,37.28 0,113.94"
           style="fill:none;stroke:#e5e5e5;stroke-opacity:1;stroke-width:0.43;stroke-linecap:butt;stroke-linejoin:round;stroke-miterlimit:10;stroke-dasharray:none"
           id="path3137" /><path
           d="m 158.42,37.28 0,113.94"
           style="fill:none;stroke:#e5e5e5;stroke-opacity:1;stroke-width:0.43;stroke-linecap:butt;stroke-linejoin:round;stroke-miterlimit:10;stroke-dasharray:none"
           id="path3139" /><path
           d="m 46.8,45.19 1.12,-1.49 1.12,-0.25 1.11,-0.3 1.12,-0.15 1.11,-0.08 1.12,0.01 1.12,0.09 1.11,0.06 1.12,0.08 1.11,0.12 1.12,0.11 1.12,0.1 1.11,0.15 1.12,0.2 1.12,0.12 1.11,0.15 1.12,0.16 1.11,0.18 1.12,0.21 1.12,0.17 1.11,0.13 1.12,0.28 1.11,0.3 1.12,0.29 1.12,0.37 1.11,0.33 1.12,0.23 1.12,0.4 1.11,0.35 1.12,0.4 1.11,0.35 1.12,0.56 1.12,0.48 1.11,0.7 1.12,0.56 1.11,0.76 1.12,0.7 1.12,0.67 1.11,0.72 1.12,0.63 1.12,0.77 1.11,0.78 1.12,0.78 1.11,0.77 1.12,0.88 1.12,4.58 1.11,1.45 1.12,1.25 1.11,1.21 1.12,1.21 1.12,0.98 1.11,1.66 1.12,0.97 1.12,1.09 1.11,5.22 1.12,1.28 1.11,1.1 1.12,0.49 1.12,1.51 1.11,1.51 1.12,1.74 1.11,1.01 1.12,1.36 1.12,1.64 1.11,1.39 1.12,1.2 1.12,1.43 1.11,1.92 1.12,1.98 1.11,2.28 1.12,1.78 1.12,1.99 1.11,2.05 1.12,1.77 1.11,2.32 1.12,2.15 1.12,1.88 1.11,2.06 1.12,2.38 1.12,1.89 1.11,2.17 1.12,2.64 1.11,1.93 1.12,1.97 1.12,0.99 1.11,1.95 1.12,1.71 1.11,1.64 1.12,1.62 1.12,1.35 1.11,1.8 1.12,1.52 1.12,1.18 1.11,0.7 1.12,0.74 1.11,0.28 1.12,0.43 1.12,0.66 1.11,0.79 1.12,0.22"
           style="fill:none;stroke:#000000;stroke-opacity:1;stroke-width:1.06;stroke-linecap:butt;stroke-linejoin:round;stroke-miterlimit:1;stroke-dasharray:none"
           id="path3141" /><path
           d="m 46.8,45.19 1.12,-1.62 1.12,-0.27 1.11,-0.37 1.12,-0.26 1.11,-0.09 1.12,-0.07 1.12,0 1.11,-0.03 1.12,-0.02 1.11,0.03 1.12,0 1.12,0.01 1.11,0.01 1.12,0.06 1.12,0 1.11,0.03 1.12,0.03 1.11,-0.01 1.12,0.02 1.12,0 1.11,0.03 1.12,0.06 1.11,0.03 1.12,0.01 1.12,0.04 1.11,0.06 1.12,0.06 1.12,0.07 1.11,0.08 1.12,0.03 1.11,0.09 1.12,0.1 1.12,0.1 1.11,0.12 1.12,0.1 1.11,0.12 1.12,0.14 1.12,0.17 1.11,0.06 1.12,0.15 1.12,0.09 1.11,0.2 1.12,0.18 1.11,0.13 1.12,0.14 1.12,0.81 1.11,0.09 1.12,0.13 1.11,0.1 1.12,0.13 1.12,0.13 1.11,0.15 1.12,0.08 1.12,0.24 1.11,0.96 1.12,0.23 1.11,0.11 1.12,0.13 1.12,0.25 1.11,0.16 1.12,0.1 1.11,0.2 1.12,0.26 1.12,0.21 1.11,0.12 1.12,0.18 1.12,0.13 1.11,0.12 1.12,0.27 1.11,0.17 1.12,0.15 1.12,0.14 1.11,0.15 1.12,0.17 1.11,0.2 1.12,0.26 1.12,0.09 1.11,0.09 1.12,0.13 1.12,0.24 1.11,0.25 1.12,0.18 1.11,0.23 1.12,0.26 1.12,0.29 1.11,0.29 1.12,0.35 1.11,0.36 1.12,0.24 1.12,0.3 1.11,0.15 1.12,0.23 1.12,0.17 1.11,0.07 1.12,0.13 1.11,0.06 1.12,0.08 1.12,0.13 1.11,0.06 1.12,0.08"
           style="fill:none;stroke:#000000;stroke-opacity:1;stroke-width:1.06;stroke-linecap:butt;stroke-linejoin:round;stroke-miterlimit:1;stroke-dasharray:2.13,2.13;stroke-dashoffset:0"
           id="path3143" /><path
           d="m 41.22,37.28 122.78,0 0,113.94 -122.78,0 0,-113.94 z"
           style="fill:none;stroke:#7f7f7f;stroke-opacity:1;stroke-width:1.06;stroke-linecap:round;stroke-linejoin:round;stroke-miterlimit:10;stroke-dasharray:none"
           id="path3145" /></g></g><g
       id="g3147" /><g
       id="g3149"><g
         id="g3151"
         clip-path="url(#clipPath3153)"><path
           d="m 185.81,37.28 122.78,0 0,113.94 -122.78,0 0,-113.94 z"
           style="fill:#ffffff;fill-opacity:1;fill-rule:nonzero;stroke:none"
           id="path3157" /><path
           d="m 185.81,60.74 122.77,0"
           style="fill:none;stroke:#fafafa;stroke-opacity:1;stroke-width:1.06;stroke-linecap:butt;stroke-linejoin:round;stroke-miterlimit:10;stroke-dasharray:none"
           id="path3159" /><path
           d="m 185.81,101.44 122.77,0"
           style="fill:none;stroke:#fafafa;stroke-opacity:1;stroke-width:1.06;stroke-linecap:butt;stroke-linejoin:round;stroke-miterlimit:10;stroke-dasharray:none"
           id="path3161" /><path
           d="m 185.81,142.14 122.77,0"
           style="fill:none;stroke:#fafafa;stroke-opacity:1;stroke-width:1.06;stroke-linecap:butt;stroke-linejoin:round;stroke-miterlimit:10;stroke-dasharray:none"
           id="path3163" /><path
           d="m 205.34,37.28 0,113.94"
           style="fill:none;stroke:#fafafa;stroke-opacity:1;stroke-width:1.06;stroke-linecap:butt;stroke-linejoin:round;stroke-miterlimit:10;stroke-dasharray:none"
           id="path3165" /><path
           d="m 233.24,37.28 0,113.94"
           style="fill:none;stroke:#fafafa;stroke-opacity:1;stroke-width:1.06;stroke-linecap:butt;stroke-linejoin:round;stroke-miterlimit:10;stroke-dasharray:none"
           id="path3167" /><path
           d="m 261.15,37.28 0,113.94"
           style="fill:none;stroke:#fafafa;stroke-opacity:1;stroke-width:1.06;stroke-linecap:butt;stroke-linejoin:round;stroke-miterlimit:10;stroke-dasharray:none"
           id="path3169" /><path
           d="m 289.05,37.28 0,113.94"
           style="fill:none;stroke:#fafafa;stroke-opacity:1;stroke-width:1.06;stroke-linecap:butt;stroke-linejoin:round;stroke-miterlimit:10;stroke-dasharray:none"
           id="path3171" /><path
           d="m 185.81,40.39 122.77,0"
           style="fill:none;stroke:#e5e5e5;stroke-opacity:1;stroke-width:0.43;stroke-linecap:butt;stroke-linejoin:round;stroke-miterlimit:10;stroke-dasharray:none"
           id="path3173" /><path
           d="m 185.81,81.09 122.77,0"
           style="fill:none;stroke:#e5e5e5;stroke-opacity:1;stroke-width:0.43;stroke-linecap:butt;stroke-linejoin:round;stroke-miterlimit:10;stroke-dasharray:none"
           id="path3175" /><path
           d="m 185.81,121.79 122.77,0"
           style="fill:none;stroke:#e5e5e5;stroke-opacity:1;stroke-width:0.43;stroke-linecap:butt;stroke-linejoin:round;stroke-miterlimit:10;stroke-dasharray:none"
           id="path3177" /><path
           d="m 191.39,37.28 0,113.94"
           style="fill:none;stroke:#e5e5e5;stroke-opacity:1;stroke-width:0.43;stroke-linecap:butt;stroke-linejoin:round;stroke-miterlimit:10;stroke-dasharray:none"
           id="path3179" /><path
           d="m 219.29,37.28 0,113.94"
           style="fill:none;stroke:#e5e5e5;stroke-opacity:1;stroke-width:0.43;stroke-linecap:butt;stroke-linejoin:round;stroke-miterlimit:10;stroke-dasharray:none"
           id="path3181" /><path
           d="m 247.19,37.28 0,113.94"
           style="fill:none;stroke:#e5e5e5;stroke-opacity:1;stroke-width:0.43;stroke-linecap:butt;stroke-linejoin:round;stroke-miterlimit:10;stroke-dasharray:none"
           id="path3183" /><path
           d="m 275.1,37.28 0,113.94"
           style="fill:none;stroke:#e5e5e5;stroke-opacity:1;stroke-width:0.43;stroke-linecap:butt;stroke-linejoin:round;stroke-miterlimit:10;stroke-dasharray:none"
           id="path3185" /><path
           d="m 303,37.28 0,113.94"
           style="fill:none;stroke:#e5e5e5;stroke-opacity:1;stroke-width:0.43;stroke-linecap:butt;stroke-linejoin:round;stroke-miterlimit:10;stroke-dasharray:none"
           id="path3187" /><path
           d="m 191.39,42.46 1.11,0.1 1.12,0.05 1.12,0.01 1.11,0.04 1.12,1.03 1.11,-0.35 1.12,-0.06 1.12,0.29 1.11,0.06 1.12,0.18 1.11,0.13 1.12,0.12 1.12,0.11 1.11,0.18 1.12,0.15 1.12,0.56 1.11,0.25 1.12,0.25 1.11,0.33 1.12,0.38 1.12,0.34 1.11,0.44 1.12,0.39 1.11,0.25 1.12,0.3 1.12,0.3 1.11,0.57 1.12,0.68 1.12,0.78 1.11,0.9 1.12,0.63 1.11,0.73 1.12,0.67 1.12,0.6 1.11,0.97 1.12,0.87 1.11,1.05 1.12,1.41 1.12,1.05 1.11,1.5 1.12,1.01 1.12,1.09 1.11,1.06 1.12,0.9 1.11,1.11 1.12,1.31 1.12,1.55 1.11,1.63 1.12,1.73 1.11,1.78 1.12,2.05 1.12,2.42 1.11,1.87 1.12,6.02 1.12,2.5 1.11,1.68 1.12,1.83 1.11,1.27 1.12,1.44 1.12,1.51 1.11,1.2 1.12,1.94 1.11,5.56 1.12,0.73 1.12,0.85 1.11,1 1.12,1.25 1.12,1.58 1.11,0.74 1.12,1.49 1.11,1.34 1.12,1.99 1.12,1.61 1.11,2.09 1.12,2.35 1.11,1.51 1.12,1.27 1.12,0.95 1.11,2.51 1.12,1.23 1.12,1.46 1.11,1.18 1.12,1.32 1.11,1.32 1.12,1.78 1.12,1.29 1.11,0.68 1.12,0.72 1.11,0.71 1.12,0.27 1.12,0.65 1.11,0.76 1.12,0.92 1.12,0.5 1.11,0.33 1.12,0.39 1.11,0.59 1.12,0.83 1.12,0.15 1.11,0.54"
           style="fill:none;stroke:#000000;stroke-opacity:1;stroke-width:1.06;stroke-linecap:butt;stroke-linejoin:round;stroke-miterlimit:1;stroke-dasharray:none"
           id="path3189" /><path
           d="m 191.39,42.46 1.11,0.14 1.12,0.05 1.12,0.03 1.11,-0.05 1.12,1.17 1.11,-0.39 1.12,-0.12 1.12,0.04 1.11,0.01 1.12,0.04 1.11,-0.02 1.12,-0.02 1.12,-0.04 1.11,0.08 1.12,0.1 1.12,0.27 1.11,0.18 1.12,0.02 1.11,0.13 1.12,0.16 1.12,0.09 1.11,0.1 1.12,0.15 1.11,0.11 1.12,0.07 1.12,0.09 1.11,0.12 1.12,0.09 1.12,0.17 1.11,0.37 1.12,0.36 1.11,0.14 1.12,0.08 1.12,0.24 1.11,0.42 1.12,0.19 1.11,0.3 1.12,0.41 1.12,0.25 1.11,0.22 1.12,0.21 1.12,0.31 1.11,0.26 1.12,0.16 1.11,0.15 1.12,0.35 1.12,0.22 1.11,0.51 1.12,0.51 1.11,0.51 1.12,0.64 1.12,1.12 1.11,0.42 1.12,1.72 1.12,0.83 1.11,0.46 1.12,0.39 1.11,0.03 1.12,0.26 1.12,0.77 1.11,0.37 1.12,0.74 1.11,1.3 1.12,0.35 1.12,-0.19 1.11,-0.45 1.12,0.24 1.12,0.24 1.11,0.27 1.12,0.18 1.11,0.6 1.12,0.64 1.12,0.73 1.11,0.67 1.12,0.09 1.11,0.8 1.12,0.14 1.12,0.26 1.11,0.4 1.12,0.43 1.12,0.16 1.11,0.63 1.12,0.74 1.11,0.2 1.12,0.4 1.12,0.45 1.11,0.2 1.12,0.53 1.11,0.35 1.12,0.15 1.12,-0.17 1.11,0.6 1.12,0.04 1.12,0.23 1.11,0.19 1.12,0.29 1.11,0.12 1.12,0.46 1.12,0.23 L 303,72"
           style="fill:none;stroke:#000000;stroke-opacity:1;stroke-width:1.06;stroke-linecap:butt;stroke-linejoin:round;stroke-miterlimit:1;stroke-dasharray:2.13,2.13;stroke-dashoffset:0"
           id="path3191" /><path
           d="m 185.81,37.28 122.78,0 0,113.94 -122.78,0 0,-113.94 z"
           style="fill:none;stroke:#7f7f7f;stroke-opacity:1;stroke-width:1.06;stroke-linecap:round;stroke-linejoin:round;stroke-miterlimit:10;stroke-dasharray:none"
           id="path3193" /></g></g><g
       id="g3195" /><g
       id="g3197"><g
         id="g3199"
         clip-path="url(#clipPath3201)"><path
           d="m 330.39,37.28 122.78,0 0,113.94 -122.78,0 0,-113.94 z"
           style="fill:#ffffff;fill-opacity:1;fill-rule:nonzero;stroke:none"
           id="path3205" /><path
           d="m 330.39,58.24 122.78,0"
           style="fill:none;stroke:#fafafa;stroke-opacity:1;stroke-width:1.06;stroke-linecap:butt;stroke-linejoin:round;stroke-miterlimit:10;stroke-dasharray:none"
           id="path3207" /><path
           d="m 330.39,93.35 122.78,0"
           style="fill:none;stroke:#fafafa;stroke-opacity:1;stroke-width:1.06;stroke-linecap:butt;stroke-linejoin:round;stroke-miterlimit:10;stroke-dasharray:none"
           id="path3209" /><path
           d="m 330.39,128.46 122.78,0"
           style="fill:none;stroke:#fafafa;stroke-opacity:1;stroke-width:1.06;stroke-linecap:butt;stroke-linejoin:round;stroke-miterlimit:10;stroke-dasharray:none"
           id="path3211" /><path
           d="m 349.92,37.28 0,113.94"
           style="fill:none;stroke:#fafafa;stroke-opacity:1;stroke-width:1.06;stroke-linecap:butt;stroke-linejoin:round;stroke-miterlimit:10;stroke-dasharray:none"
           id="path3213" /><path
           d="m 377.83,37.28 0,113.94"
           style="fill:none;stroke:#fafafa;stroke-opacity:1;stroke-width:1.06;stroke-linecap:butt;stroke-linejoin:round;stroke-miterlimit:10;stroke-dasharray:none"
           id="path3215" /><path
           d="m 405.73,37.28 0,113.94"
           style="fill:none;stroke:#fafafa;stroke-opacity:1;stroke-width:1.06;stroke-linecap:butt;stroke-linejoin:round;stroke-miterlimit:10;stroke-dasharray:none"
           id="path3217" /><path
           d="m 433.63,37.28 0,113.94"
           style="fill:none;stroke:#fafafa;stroke-opacity:1;stroke-width:1.06;stroke-linecap:butt;stroke-linejoin:round;stroke-miterlimit:10;stroke-dasharray:none"
           id="path3219" /><path
           d="m 330.39,40.69 122.78,0"
           style="fill:none;stroke:#e5e5e5;stroke-opacity:1;stroke-width:0.43;stroke-linecap:butt;stroke-linejoin:round;stroke-miterlimit:10;stroke-dasharray:none"
           id="path3221" /><path
           d="m 330.39,75.79 122.78,0"
           style="fill:none;stroke:#e5e5e5;stroke-opacity:1;stroke-width:0.43;stroke-linecap:butt;stroke-linejoin:round;stroke-miterlimit:10;stroke-dasharray:none"
           id="path3223" /><path
           d="m 330.39,110.9 122.78,0"
           style="fill:none;stroke:#e5e5e5;stroke-opacity:1;stroke-width:0.43;stroke-linecap:butt;stroke-linejoin:round;stroke-miterlimit:10;stroke-dasharray:none"
           id="path3225" /><path
           d="m 330.39,146.01 122.78,0"
           style="fill:none;stroke:#e5e5e5;stroke-opacity:1;stroke-width:0.43;stroke-linecap:butt;stroke-linejoin:round;stroke-miterlimit:10;stroke-dasharray:none"
           id="path3227" /><path
           d="m 335.97,37.28 0,113.94"
           style="fill:none;stroke:#e5e5e5;stroke-opacity:1;stroke-width:0.43;stroke-linecap:butt;stroke-linejoin:round;stroke-miterlimit:10;stroke-dasharray:none"
           id="path3229" /><path
           d="m 363.87,37.28 0,113.94"
           style="fill:none;stroke:#e5e5e5;stroke-opacity:1;stroke-width:0.43;stroke-linecap:butt;stroke-linejoin:round;stroke-miterlimit:10;stroke-dasharray:none"
           id="path3231" /><path
           d="m 391.78,37.28 0,113.94"
           style="fill:none;stroke:#e5e5e5;stroke-opacity:1;stroke-width:0.43;stroke-linecap:butt;stroke-linejoin:round;stroke-miterlimit:10;stroke-dasharray:none"
           id="path3233" /><path
           d="m 419.68,37.28 0,113.94"
           style="fill:none;stroke:#e5e5e5;stroke-opacity:1;stroke-width:0.43;stroke-linecap:butt;stroke-linejoin:round;stroke-miterlimit:10;stroke-dasharray:none"
           id="path3235" /><path
           d="m 447.59,37.28 0,113.94"
           style="fill:none;stroke:#e5e5e5;stroke-opacity:1;stroke-width:0.43;stroke-linecap:butt;stroke-linejoin:round;stroke-miterlimit:10;stroke-dasharray:none"
           id="path3237" /><path
           d="m 335.97,71.44 1.12,-16.32 1.11,-1.49 1.12,-1.39 1.12,-0.85 1.11,-0.08 1.12,0.12 1.11,0.75 1.12,0.35 1.12,0.36 1.11,0.18 1.12,0.23 1.11,0.23 1.12,0.15 1.12,1.66 1.11,0.39 1.12,0 1.12,0.58 1.11,0.34 1.12,1.38 1.11,1.58 1.12,0.67 1.12,1.83 1.11,1.16 1.12,1.48 1.11,0.67 1.12,0.55 1.12,0.99 1.11,1.2 1.12,2.3 1.12,1.8 1.11,0.3 1.12,2.41 1.11,0.82 1.12,3.05 1.12,1.64 1.11,0.85 1.12,2.16 1.11,0.47 1.12,0.01 1.12,0.93 1.11,1.82 1.12,1.33 1.12,1.68 1.11,1.15 1.12,1.11 1.11,13.25 1.12,-3.28 1.12,1.43 1.11,2.76 1.12,1.85 1.11,0.63 1.12,3.39 1.12,0.09 1.11,3.2 1.12,-1.95 1.12,2.5 1.11,1.09 1.12,-0.24 1.11,3.3 1.12,2.3 1.12,1.67 1.11,0.63 1.12,0.2 1.11,2.05 1.12,-0.16 1.12,0.07 1.11,1.54 1.12,2.32 1.12,2.24 1.11,3.65 1.12,0.87 1.11,0.31 1.12,1.49 1.12,-0.2 1.11,1.28 1.12,1.38 1.11,4.12 1.12,-0.34 1.12,-1.42 1.11,-0.23 1.12,2.26 1.12,-0.16 1.11,-0.99 1.12,-0.79 1.11,-1.47 1.12,0.41 1.12,-0.77 1.11,0.56 1.12,0.68 1.11,-0.38 1.12,-1.4 1.12,1.5 1.11,0.39 1.12,-0.8 1.12,0.38 1.11,0.25 1.12,-0.43 1.11,0.11 1.12,-0.44 1.12,-1.2"
           style="fill:none;stroke:#000000;stroke-opacity:1;stroke-width:1.06;stroke-linecap:butt;stroke-linejoin:round;stroke-miterlimit:1;stroke-dasharray:none"
           id="path3239" /><path
           d="m 335.97,71.44 1.12,-18.92 1.11,-2.71 1.12,-2.73 1.12,-1.86 1.11,-0.94 1.12,-0.56 1.11,-0.37 1.12,-0.3 1.12,-0.22 1.11,-0.15 1.12,-0.16 1.11,-0.06 1.12,0.05 1.12,0.19 1.11,0.09 1.12,-0.05 1.12,0.03 1.11,-0.01 1.12,0.08 1.11,0.07 1.12,0.01 1.12,0.27 1.11,0.12 1.12,0.14 1.11,0 1.12,0.07 1.12,0.1 1.11,0.13 1.12,0.19 1.12,0.09 1.11,-0.05 1.12,0.21 1.11,0.04 1.12,0.29 1.12,0.07 1.11,0.03 1.12,0.23 1.11,0.01 1.12,-0.14 1.12,0.1 1.11,0.03 1.12,0 1.12,0.08 1.11,0.12 1.12,0.08 1.11,1.09 1.12,-0.66 1.12,0.04 1.11,0.42 1.12,0.33 1.11,0.2 1.12,0.66 1.12,0.12 1.11,0.51 1.12,-0.54 1.12,0.14 1.11,0.13 1.12,0.01 1.11,0.47 1.12,0.11 1.12,-0.08 1.11,0.15 1.12,0.06 1.11,0.22 1.12,-0.27 1.12,-0.05 1.11,-0.04 1.12,0.2 1.12,0.19 1.11,0.41 1.12,0.03 1.11,0.38 1.12,0.55 1.12,0.05 1.11,0.22 1.12,0.45 1.11,0.89 1.12,-0.11 1.12,-0.2 1.11,0.04 1.12,0.24 1.12,-0.04 1.11,-0.22 1.12,0.04 1.11,-0.14 1.12,0.26 1.12,-0.2 1.11,-0.12 1.12,0.12 1.11,-0.02 1.12,-0.23 1.12,0.25 1.11,0.16 1.12,-0.25 1.12,0.2 1.11,0.1 1.12,-0.09 1.11,-0.07 1.12,-0.05 1.12,0.06"
           style="fill:none;stroke:#000000;stroke-opacity:1;stroke-width:1.06;stroke-linecap:butt;stroke-linejoin:round;stroke-miterlimit:1;stroke-dasharray:2.13,2.13;stroke-dashoffset:0"
           id="path3241" /><path
           d="m 330.39,37.28 122.78,0 0,113.94 -122.78,0 0,-113.94 z"
           style="fill:none;stroke:#7f7f7f;stroke-opacity:1;stroke-width:1.06;stroke-linecap:round;stroke-linejoin:round;stroke-miterlimit:10;stroke-dasharray:none"
           id="path3243" /></g></g><g
       id="g3245" /><path
       inkscape:connector-curvature="0"
       id="path3249"
       style="fill:#ffffff;fill-opacity:1;fill-rule:nonzero;stroke:#7f7f7f;stroke-width:1.05999994;stroke-linecap:round;stroke-linejoin:round;stroke-miterlimit:10;stroke-opacity:1;stroke-dasharray:none"
       d="m 41.22,151.22 122.78,0 0,14.38 -122.78,0 0,-14.38 z" /><g
       id="g3255" /><path
       inkscape:connector-curvature="0"
       id="path3259"
       style="fill:#ffffff;fill-opacity:1;fill-rule:nonzero;stroke:#7f7f7f;stroke-width:1.05999994;stroke-linecap:round;stroke-linejoin:round;stroke-miterlimit:10;stroke-opacity:1;stroke-dasharray:none"
       d="m 185.81,151.22 122.78,0 0,14.38 -122.78,0 0,-14.38 z" /><g
       id="g3265" /><path
       inkscape:connector-curvature="0"
       id="path3269"
       style="fill:#ffffff;fill-opacity:1;fill-rule:nonzero;stroke:#7f7f7f;stroke-width:1.05999994;stroke-linecap:round;stroke-linejoin:round;stroke-miterlimit:10;stroke-opacity:1;stroke-dasharray:none"
       d="m 330.39,151.22 122.78,0 0,14.38 -122.78,0 0,-14.38 z" /><g
       id="g3275" /><g
       id="g3277" /><g
       id="g3279"><text
         transform="matrix(1,0,0,-1,28.58,37.41)"
         id="text3281"><tspan
           style="fill:#000000;fill-opacity:1;fill-rule:nonzero;stroke:none;font-family:Helvetica;font-variant:normal;font-weight:normal;font-size:10;writing-mode:lr;-inkscape-font-specification:Helvetica"
           x="0"
           y="0"
           id="tspan3283">0</tspan></text>
<text
         transform="matrix(1,0,0,-1,23.02,62.63)"
         id="text3285"><tspan
           style="fill:#000000;fill-opacity:1;fill-rule:nonzero;stroke:none;font-family:Helvetica;font-variant:normal;font-weight:normal;font-size:10;writing-mode:lr;-inkscape-font-specification:Helvetica"
           x="0 5.56"
           y="0"
           sodipodi:role="line"
           id="tspan3287">20</tspan></text>
<text
         transform="matrix(1,0,0,-1,23.02,87.85)"
         id="text3289"><tspan
           style="fill:#000000;fill-opacity:1;fill-rule:nonzero;stroke:none;font-family:Helvetica;font-variant:normal;font-weight:normal;font-size:10;writing-mode:lr;-inkscape-font-specification:Helvetica"
           x="0 5.56"
           y="0"
           sodipodi:role="line"
           id="tspan3291">40</tspan></text>
<text
         transform="matrix(1,0,0,-1,23.02,113.08)"
         id="text3293"><tspan
           style="fill:#000000;fill-opacity:1;fill-rule:nonzero;stroke:none;font-family:Helvetica;font-variant:normal;font-weight:normal;font-size:10;writing-mode:lr;-inkscape-font-specification:Helvetica"
           x="0 5.56"
           y="0"
           sodipodi:role="line"
           id="tspan3295">60</tspan></text>
<text
         transform="matrix(1,0,0,-1,23.02,138.3)"
         id="text3297"><tspan
           style="fill:#000000;fill-opacity:1;fill-rule:nonzero;stroke:none;font-family:Helvetica;font-variant:normal;font-weight:normal;font-size:10;writing-mode:lr;-inkscape-font-specification:Helvetica"
           x="0 5.56"
           y="0"
           sodipodi:role="line"
           id="tspan3299">80</tspan></text>
</g><g
       id="g3301" /><g
       id="g3303"><path
         d="m 36.97,41 4.25,0"
         style="fill:none;stroke:#000000;stroke-opacity:1;stroke-width:1.06;stroke-linecap:butt;stroke-linejoin:round;stroke-miterlimit:10;stroke-dasharray:none"
         id="path3305" /><path
         d="m 36.97,66.22 4.25,0"
         style="fill:none;stroke:#000000;stroke-opacity:1;stroke-width:1.06;stroke-linecap:butt;stroke-linejoin:round;stroke-miterlimit:10;stroke-dasharray:none"
         id="path3307" /><path
         d="m 36.97,91.44 4.25,0"
         style="fill:none;stroke:#000000;stroke-opacity:1;stroke-width:1.06;stroke-linecap:butt;stroke-linejoin:round;stroke-miterlimit:10;stroke-dasharray:none"
         id="path3309" /><path
         d="m 36.97,116.67 4.25,0"
         style="fill:none;stroke:#000000;stroke-opacity:1;stroke-width:1.06;stroke-linecap:butt;stroke-linejoin:round;stroke-miterlimit:10;stroke-dasharray:none"
         id="path3311" /><path
         d="m 36.97,141.89 4.25,0"
         style="fill:none;stroke:#000000;stroke-opacity:1;stroke-width:1.06;stroke-linecap:butt;stroke-linejoin:round;stroke-miterlimit:10;stroke-dasharray:none"
         id="path3313" /></g><g
       id="g3315" /><g
       id="g3317" /><g
       id="g3319" /><g
       id="g3321" /><g
       id="g3323" /><g
       id="g3325"><text
         transform="matrix(1,0,0,-1,173.16,36.8)"
         id="text3327"><tspan
           style="fill:#000000;fill-opacity:1;fill-rule:nonzero;stroke:none;font-family:Helvetica;font-variant:normal;font-weight:normal;font-size:10;writing-mode:lr;-inkscape-font-specification:Helvetica"
           x="0"
           y="0"
           id="tspan3329">0</tspan></text>
<text
         transform="matrix(1,0,0,-1,167.6,77.5)"
         id="text3331"><tspan
           style="fill:#000000;fill-opacity:1;fill-rule:nonzero;stroke:none;font-family:Helvetica;font-variant:normal;font-weight:normal;font-size:10;writing-mode:lr;-inkscape-font-specification:Helvetica"
           x="0 5.56"
           y="0"
           sodipodi:role="line"
           id="tspan3333">10</tspan></text>
<text
         transform="matrix(1,0,0,-1,167.6,118.2)"
         id="text3335"><tspan
           style="fill:#000000;fill-opacity:1;fill-rule:nonzero;stroke:none;font-family:Helvetica;font-variant:normal;font-weight:normal;font-size:10;writing-mode:lr;-inkscape-font-specification:Helvetica"
           x="0 5.56"
           y="0"
           sodipodi:role="line"
           id="tspan3337">20</tspan></text>
</g><g
       id="g3339" /><g
       id="g3341"><path
         d="m 181.55,40.39 4.26,0"
         style="fill:none;stroke:#000000;stroke-opacity:1;stroke-width:1.06;stroke-linecap:butt;stroke-linejoin:round;stroke-miterlimit:10;stroke-dasharray:none"
         id="path3343" /><path
         d="m 181.55,81.09 4.26,0"
         style="fill:none;stroke:#000000;stroke-opacity:1;stroke-width:1.06;stroke-linecap:butt;stroke-linejoin:round;stroke-miterlimit:10;stroke-dasharray:none"
         id="path3345" /><path
         d="m 181.55,121.79 4.26,0"
         style="fill:none;stroke:#000000;stroke-opacity:1;stroke-width:1.06;stroke-linecap:butt;stroke-linejoin:round;stroke-miterlimit:10;stroke-dasharray:none"
         id="path3347" /></g><g
       id="g3349" /><g
       id="g3351" /><g
       id="g3353" /><g
       id="g3355" /><g
       id="g3357" /><g
       id="g3359"><text
         transform="matrix(1,0,0,-1,317.74,37.1)"
         id="text3361"><tspan
           style="fill:#000000;fill-opacity:1;fill-rule:nonzero;stroke:none;font-family:Helvetica;font-variant:normal;font-weight:normal;font-size:10;writing-mode:lr;-inkscape-font-specification:Helvetica"
           x="0"
           y="0"
           id="tspan3363">0</tspan></text>
<text
         transform="matrix(1,0,0,-1,312.18,72.2)"
         id="text3365"><tspan
           style="fill:#000000;fill-opacity:1;fill-rule:nonzero;stroke:none;font-family:Helvetica;font-variant:normal;font-weight:normal;font-size:10;writing-mode:lr;-inkscape-font-specification:Helvetica"
           x="0 5.56"
           y="0"
           sodipodi:role="line"
           id="tspan3367">20</tspan></text>
<text
         transform="matrix(1,0,0,-1,312.18,107.31)"
         id="text3369"><tspan
           style="fill:#000000;fill-opacity:1;fill-rule:nonzero;stroke:none;font-family:Helvetica;font-variant:normal;font-weight:normal;font-size:10;writing-mode:lr;-inkscape-font-specification:Helvetica"
           x="0 5.56"
           y="0"
           sodipodi:role="line"
           id="tspan3371">40</tspan></text>
<text
         transform="matrix(1,0,0,-1,312.18,142.42)"
         id="text3373"><tspan
           style="fill:#000000;fill-opacity:1;fill-rule:nonzero;stroke:none;font-family:Helvetica;font-variant:normal;font-weight:normal;font-size:10;writing-mode:lr;-inkscape-font-specification:Helvetica"
           x="0 5.56"
           y="0"
           sodipodi:role="line"
           id="tspan3375">60</tspan></text>
</g><g
       id="g3377" /><g
       id="g3379"><path
         d="m 326.14,40.69 4.25,0"
         style="fill:none;stroke:#000000;stroke-opacity:1;stroke-width:1.06;stroke-linecap:butt;stroke-linejoin:round;stroke-miterlimit:10;stroke-dasharray:none"
         id="path3381" /><path
         d="m 326.14,75.79 4.25,0"
         style="fill:none;stroke:#000000;stroke-opacity:1;stroke-width:1.06;stroke-linecap:butt;stroke-linejoin:round;stroke-miterlimit:10;stroke-dasharray:none"
         id="path3383" /><path
         d="m 326.14,110.9 4.25,0"
         style="fill:none;stroke:#000000;stroke-opacity:1;stroke-width:1.06;stroke-linecap:butt;stroke-linejoin:round;stroke-miterlimit:10;stroke-dasharray:none"
         id="path3385" /><path
         d="m 326.14,146.01 4.25,0"
         style="fill:none;stroke:#000000;stroke-opacity:1;stroke-width:1.06;stroke-linecap:butt;stroke-linejoin:round;stroke-miterlimit:10;stroke-dasharray:none"
         id="path3387" /></g><g
       id="g3389" /><g
       id="g3391" /><g
       id="g3393" /><g
       id="g3395" /><g
       id="g3397" /><g
       id="g3399"><path
         d="m 46.8,33.03 0,4.25"
         style="fill:none;stroke:#000000;stroke-opacity:1;stroke-width:1.06;stroke-linecap:butt;stroke-linejoin:round;stroke-miterlimit:10;stroke-dasharray:none"
         id="path3401" /><path
         d="m 74.71,33.03 0,4.25"
         style="fill:none;stroke:#000000;stroke-opacity:1;stroke-width:1.06;stroke-linecap:butt;stroke-linejoin:round;stroke-miterlimit:10;stroke-dasharray:none"
         id="path3403" /><path
         d="m 102.61,33.03 0,4.25"
         style="fill:none;stroke:#000000;stroke-opacity:1;stroke-width:1.06;stroke-linecap:butt;stroke-linejoin:round;stroke-miterlimit:10;stroke-dasharray:none"
         id="path3405" /><path
         d="m 130.51,33.03 0,4.25"
         style="fill:none;stroke:#000000;stroke-opacity:1;stroke-width:1.06;stroke-linecap:butt;stroke-linejoin:round;stroke-miterlimit:10;stroke-dasharray:none"
         id="path3407" /><path
         d="m 158.42,33.03 0,4.25"
         style="fill:none;stroke:#000000;stroke-opacity:1;stroke-width:1.06;stroke-linecap:butt;stroke-linejoin:round;stroke-miterlimit:10;stroke-dasharray:none"
         id="path3409" /></g><g
       id="g3411" /><g
       id="g3413"><text
         transform="matrix(1,0,0,-1,44.02,23.02)"
         id="text3415"><tspan
           style="fill:#000000;fill-opacity:1;fill-rule:nonzero;stroke:none;font-family:Helvetica;font-variant:normal;font-weight:normal;font-size:10;writing-mode:lr;-inkscape-font-specification:Helvetica"
           x="0"
           y="0"
           id="tspan3417">0</tspan></text>
<text
         transform="matrix(1,0,0,-1,66.37,23.02)"
         id="text3419"><tspan
           style="fill:#000000;fill-opacity:1;fill-rule:nonzero;stroke:none;font-family:Helvetica;font-variant:normal;font-weight:normal;font-size:10;writing-mode:lr;-inkscape-font-specification:Helvetica"
           x="0 5.56 11.12"
           y="0"
           sodipodi:role="line"
           id="tspan3421">250</tspan></text>
<text
         transform="matrix(1,0,0,-1,94.27,23.02)"
         id="text3423"><tspan
           style="fill:#000000;fill-opacity:1;fill-rule:nonzero;stroke:none;font-family:Helvetica;font-variant:normal;font-weight:normal;font-size:10;writing-mode:lr;-inkscape-font-specification:Helvetica"
           x="0 5.56 11.12"
           y="0"
           sodipodi:role="line"
           id="tspan3425">500</tspan></text>
<text
         transform="matrix(1,0,0,-1,122.17,23.02)"
         id="text3427"><tspan
           style="fill:#000000;fill-opacity:1;fill-rule:nonzero;stroke:none;font-family:Helvetica;font-variant:normal;font-weight:normal;font-size:10;writing-mode:lr;-inkscape-font-specification:Helvetica"
           x="0 5.56 11.12"
           y="0"
           sodipodi:role="line"
           id="tspan3429">750</tspan></text>
<text
         transform="matrix(1,0,0,-1,147.3,23.02)"
         id="text3431"><tspan
           style="fill:#000000;fill-opacity:1;fill-rule:nonzero;stroke:none;font-family:Helvetica;font-variant:normal;font-weight:normal;font-size:10;writing-mode:lr;-inkscape-font-specification:Helvetica"
           x="0 5.56 11.12 16.68"
           y="0"
           sodipodi:role="line"
           id="tspan3433">1000</tspan></text>
</g><g
       id="g3435" /><g
       id="g3437" /><g
       id="g3439" /><g
       id="g3441" /><g
       id="g3443" /><g
       id="g3445"><path
         d="m 191.39,33.03 0,4.25"
         style="fill:none;stroke:#000000;stroke-opacity:1;stroke-width:1.06;stroke-linecap:butt;stroke-linejoin:round;stroke-miterlimit:10;stroke-dasharray:none"
         id="path3447" /><path
         d="m 219.29,33.03 0,4.25"
         style="fill:none;stroke:#000000;stroke-opacity:1;stroke-width:1.06;stroke-linecap:butt;stroke-linejoin:round;stroke-miterlimit:10;stroke-dasharray:none"
         id="path3449" /><path
         d="m 247.19,33.03 0,4.25"
         style="fill:none;stroke:#000000;stroke-opacity:1;stroke-width:1.06;stroke-linecap:butt;stroke-linejoin:round;stroke-miterlimit:10;stroke-dasharray:none"
         id="path3451" /><path
         d="m 275.1,33.03 0,4.25"
         style="fill:none;stroke:#000000;stroke-opacity:1;stroke-width:1.06;stroke-linecap:butt;stroke-linejoin:round;stroke-miterlimit:10;stroke-dasharray:none"
         id="path3453" /><path
         d="m 303,33.03 0,4.25"
         style="fill:none;stroke:#000000;stroke-opacity:1;stroke-width:1.06;stroke-linecap:butt;stroke-linejoin:round;stroke-miterlimit:10;stroke-dasharray:none"
         id="path3455" /></g><g
       id="g3457" /><g
       id="g3459"><text
         transform="matrix(1,0,0,-1,188.61,23.02)"
         id="text3461"><tspan
           style="fill:#000000;fill-opacity:1;fill-rule:nonzero;stroke:none;font-family:Helvetica;font-variant:normal;font-weight:normal;font-size:10;writing-mode:lr;-inkscape-font-specification:Helvetica"
           x="0"
           y="0"
           id="tspan3463">0</tspan></text>
<text
         transform="matrix(1,0,0,-1,210.95,23.02)"
         id="text3465"><tspan
           style="fill:#000000;fill-opacity:1;fill-rule:nonzero;stroke:none;font-family:Helvetica;font-variant:normal;font-weight:normal;font-size:10;writing-mode:lr;-inkscape-font-specification:Helvetica"
           x="0 5.56 11.12"
           y="0"
           sodipodi:role="line"
           id="tspan3467">250</tspan></text>
<text
         transform="matrix(1,0,0,-1,238.85,23.02)"
         id="text3469"><tspan
           style="fill:#000000;fill-opacity:1;fill-rule:nonzero;stroke:none;font-family:Helvetica;font-variant:normal;font-weight:normal;font-size:10;writing-mode:lr;-inkscape-font-specification:Helvetica"
           x="0 5.56 11.12"
           y="0"
           sodipodi:role="line"
           id="tspan3471">500</tspan></text>
<text
         transform="matrix(1,0,0,-1,266.76,23.02)"
         id="text3473"><tspan
           style="fill:#000000;fill-opacity:1;fill-rule:nonzero;stroke:none;font-family:Helvetica;font-variant:normal;font-weight:normal;font-size:10;writing-mode:lr;-inkscape-font-specification:Helvetica"
           x="0 5.56 11.12"
           y="0"
           sodipodi:role="line"
           id="tspan3475">750</tspan></text>
<text
         transform="matrix(1,0,0,-1,291.88,23.02)"
         id="text3477"><tspan
           style="fill:#000000;fill-opacity:1;fill-rule:nonzero;stroke:none;font-family:Helvetica;font-variant:normal;font-weight:normal;font-size:10;writing-mode:lr;-inkscape-font-specification:Helvetica"
           x="0 5.56 11.12 16.68"
           y="0"
           sodipodi:role="line"
           id="tspan3479">1000</tspan></text>
</g><g
       id="g3481" /><g
       id="g3483" /><g
       id="g3485" /><g
       id="g3487" /><g
       id="g3489" /><g
       id="g3491"><path
         d="m 335.97,33.03 0,4.25"
         style="fill:none;stroke:#000000;stroke-opacity:1;stroke-width:1.06;stroke-linecap:butt;stroke-linejoin:round;stroke-miterlimit:10;stroke-dasharray:none"
         id="path3493" /><path
         d="m 363.87,33.03 0,4.25"
         style="fill:none;stroke:#000000;stroke-opacity:1;stroke-width:1.06;stroke-linecap:butt;stroke-linejoin:round;stroke-miterlimit:10;stroke-dasharray:none"
         id="path3495" /><path
         d="m 391.78,33.03 0,4.25"
         style="fill:none;stroke:#000000;stroke-opacity:1;stroke-width:1.06;stroke-linecap:butt;stroke-linejoin:round;stroke-miterlimit:10;stroke-dasharray:none"
         id="path3497" /><path
         d="m 419.68,33.03 0,4.25"
         style="fill:none;stroke:#000000;stroke-opacity:1;stroke-width:1.06;stroke-linecap:butt;stroke-linejoin:round;stroke-miterlimit:10;stroke-dasharray:none"
         id="path3499" /><path
         d="m 447.59,33.03 0,4.25"
         style="fill:none;stroke:#000000;stroke-opacity:1;stroke-width:1.06;stroke-linecap:butt;stroke-linejoin:round;stroke-miterlimit:10;stroke-dasharray:none"
         id="path3501" /></g><g
       id="g3503" /><g
       id="g3505"><text
         transform="matrix(1,0,0,-1,333.19,23.02)"
         id="text3507"><tspan
           style="fill:#000000;fill-opacity:1;fill-rule:nonzero;stroke:none;font-family:Helvetica;font-variant:normal;font-weight:normal;font-size:10;writing-mode:lr;-inkscape-font-specification:Helvetica"
           x="0"
           y="0"
           id="tspan3509">0</tspan></text>
<text
         transform="matrix(1,0,0,-1,355.53,23.02)"
         id="text3511"><tspan
           style="fill:#000000;fill-opacity:1;fill-rule:nonzero;stroke:none;font-family:Helvetica;font-variant:normal;font-weight:normal;font-size:10;writing-mode:lr;-inkscape-font-specification:Helvetica"
           x="0 5.56 11.12"
           y="0"
           sodipodi:role="line"
           id="tspan3513">250</tspan></text>
<text
         transform="matrix(1,0,0,-1,383.44,23.02)"
         id="text3515"><tspan
           style="fill:#000000;fill-opacity:1;fill-rule:nonzero;stroke:none;font-family:Helvetica;font-variant:normal;font-weight:normal;font-size:10;writing-mode:lr;-inkscape-font-specification:Helvetica"
           x="0 5.56 11.12"
           y="0"
           sodipodi:role="line"
           id="tspan3517">500</tspan></text>
<text
         transform="matrix(1,0,0,-1,411.34,23.02)"
         id="text3519"><tspan
           style="fill:#000000;fill-opacity:1;fill-rule:nonzero;stroke:none;font-family:Helvetica;font-variant:normal;font-weight:normal;font-size:10;writing-mode:lr;-inkscape-font-specification:Helvetica"
           x="0 5.56 11.12"
           y="0"
           sodipodi:role="line"
           id="tspan3521">750</tspan></text>
<text
         transform="matrix(1,0,0,-1,436.47,23.02)"
         id="text3523"><tspan
           style="fill:#000000;fill-opacity:1;fill-rule:nonzero;stroke:none;font-family:Helvetica;font-variant:normal;font-weight:normal;font-size:10;writing-mode:lr;-inkscape-font-specification:Helvetica"
           x="0 5.56 11.12 16.68"
           y="0"
           sodipodi:role="line"
           id="tspan3525">1000</tspan></text>
</g><g
       id="g3527" /><g
       id="g3529" /><g
       id="g3531" /><g
       id="g3533" /><g
       id="g3535"><text
         transform="matrix(1,0,0,-1,213.92,10.8)"
         id="text3537"><tspan
           style="fill:#000000;fill-opacity:1;fill-rule:nonzero;stroke:none;font-family:Helvetica;font-variant:normal;font-weight:normal;font-size:12;writing-mode:lr;-inkscape-font-specification:Helvetica"
           x="0 8.664 15.336 19.212 25.884 29.22 31.884 38.556 45.228 48.564 52.56 58.56 62.556"
           y="0"
           sodipodi:role="line"
           id="tspan3539">Duration (yr)</tspan></text>
</g><g
       id="g3541" /><g
       id="g3543"><text
         transform="matrix(0,1,1,0,19.42,61.7)"
         id="text3545"><tspan
           style="fill:#000000;fill-opacity:1;fill-rule:nonzero;stroke:none;font-family:Helvetica;font-variant:normal;font-weight:normal;font-size:12;writing-mode:lr;-inkscape-font-specification:Helvetica"
           x="0 7.164 13.836 18.012 20.676 27.348 33.78 36.444 43.116 46.452 50.448 61.116"
           y="0"
           sodipodi:role="line"
           id="tspan3547">Variable (%)</tspan></text>
</g><g
       id="g3549" /><g
       id="g3551" /><g
       id="g3553" /><g
       id="g3555" /><g
       id="g3557" /><g
       id="g3559"><path
         d="m 463.2,70.56 88.36,0 0,47.38 -88.36,0 0,-47.38 z"
         style="fill:#ffffff;fill-opacity:1;fill-rule:nonzero;stroke:none"
         id="path3561" /></g><g
       id="g3563" /><g
       id="g3565" /><g
       id="g3567" /><g
       id="g3569"><path
         d="m 467.45,92.09 17.28,0 0,17.28 -17.28,0 0,-17.28 z"
         style="fill:#ffffff;fill-opacity:1;fill-rule:nonzero;stroke:#cccccc;stroke-opacity:1;stroke-width:1.06;stroke-linecap:round;stroke-linejoin:round;stroke-miterlimit:10;stroke-dasharray:none"
         id="path3571" /></g><g
       id="g3573" /><g
       id="g3575"><path
         d="m 469.18,100.73 13.83,0"
         style="fill:none;stroke:#000000;stroke-opacity:1;stroke-width:1.06;stroke-linecap:butt;stroke-linejoin:round;stroke-miterlimit:10;stroke-dasharray:none"
         id="path3577" /></g><g
       id="g3579" /><g
       id="g3581"><path
         d="m 467.45,74.81 17.28,0 0,17.28 -17.28,0 0,-17.28 z"
         style="fill:#ffffff;fill-opacity:1;fill-rule:nonzero;stroke:#cccccc;stroke-opacity:1;stroke-width:1.06;stroke-linecap:round;stroke-linejoin:round;stroke-miterlimit:10;stroke-dasharray:none"
         id="path3583" /></g><g
       id="g3585" /><g
       id="g3587"><path
         d="m 469.18,83.45 13.83,0"
         style="fill:none;stroke:#000000;stroke-opacity:1;stroke-width:1.06;stroke-linecap:butt;stroke-linejoin:round;stroke-miterlimit:10;stroke-dasharray:2.13,2.13;stroke-dashoffset:0"
         id="path3589" /></g><g
       id="g3591" /><g
       id="g3593"><text
         transform="matrix(1,0,0,-1,486.89,97.14)"
         id="text3595"><tspan
           style="fill:#000000;fill-opacity:1;fill-rule:nonzero;stroke:none;font-family:Helvetica;font-variant:normal;font-weight:normal;font-size:10;writing-mode:lr;-inkscape-font-specification:Helvetica"
           x="0 5.56 11.12 13.9 19.46 22.79 28.2 35.42 40.42 42.64 48.2"
           y="0"
           sodipodi:role="line"
           id="tspan3597">no browsing</tspan></text>
</g><g
       id="g3599" /><g
       id="g3601"><text
         transform="matrix(1,0,0,-1,486.89,79.86)"
         id="text3603"><tspan
           style="fill:#000000;fill-opacity:1;fill-rule:nonzero;stroke:none;font-family:Helvetica;font-variant:normal;font-weight:normal;font-size:10;writing-mode:lr;-inkscape-font-specification:Helvetica"
           x="0 7.22 9.44 12.22 17.78 20.56 26.12 29.45 34.86 42.08 47.08 49.3 54.86"
           y="0"
           sodipodi:role="line"
           id="tspan3605">with browsing</tspan></text>
</g><g
       id="g3607" /><g
       id="g3609" /><g
       id="g3611" /><g
       id="g3613" /><g
       id="g3615" /><g
       id="g3617" /><g
       id="g3619" /><g
       id="g3621" /><g
       id="g3623" /><g
       id="g3625" /><g
       id="g3627" /><g
       id="g3629" /><text
       xml:space="preserve"
       style="font-size:32px;font-style:normal;font-weight:normal;line-height:125%;letter-spacing:0px;word-spacing:0px;fill:#000000;fill-opacity:1;stroke:none;font-family:Sans"
       x="45.5858"
       y="-155.50296"
       id="text3640"
       sodipodi:linespacing="125%"
       transform="scale(1,-1)"><tspan
         sodipodi:role="line"
         id="tspan3642"
         x="45.5858"
         y="-155.50296"
         style="font-size:8.80000019px">Biomass ratio A.alba/total</tspan></text>
<text
       xml:space="preserve"
       style="font-size:32px;font-style:normal;font-weight:normal;line-height:125%;letter-spacing:0px;word-spacing:0px;fill:#000000;fill-opacity:1;stroke:none;font-family:Sans"
       x="203.96771"
       y="-155.55043"
       id="text3640-9"
       sodipodi:linespacing="125%"
       transform="scale(1,-1)"><tspan
         sodipodi:role="line"
         id="tspan3642-7"
         x="203.96771"
         y="-155.55043"
         style="font-size:8.80000019px">Mature A.alba cells</tspan></text>
<text
       xml:space="preserve"
       style="font-size:32px;font-style:normal;font-weight:normal;line-height:125%;letter-spacing:0px;word-spacing:0px;fill:#000000;fill-opacity:1;stroke:none;font-family:Sans"
       x="339.44702"
       y="-155.1244"
       id="text3640-3"
       sodipodi:linespacing="125%"
       transform="scale(1,-1)"><tspan
         sodipodi:role="line"
         id="tspan3642-8"
         x="339.44702"
         y="-155.1244"
         style="font-size:8.80000019px">Individual A. alba trees</tspan></text>
</g></svg>