<svg xmlns="http://www.w3.org/2000/svg" xmlns:svg="http://www.w3.org/2000/svg" id="svg3073" width="720" height="225" version="1.1" xml:space="preserve"><metadata id="metadata3079"/><defs id="defs3077"><clipPath id="clipPath3099" clipPathUnits="userSpaceOnUse"><path id="path3101" d="m 41.22,37.28 122.78,0 0,113.94 -122.78,0 0,-113.94 z"/></clipPath><clipPath id="clipPath3153" clipPathUnits="userSpaceOnUse"><path id="path3155" d="m 185.81,37.28 122.78,0 0,113.94 -122.78,0 0,-113.94 z"/></clipPath><clipPath id="clipPath3201" clipPathUnits="userSpaceOnUse"><path id="path3203" d="m 330.39,37.28 122.78,0 0,113.94 -122.78,0 0,-113.94 z"/></clipPath></defs><g id="g3081" transform="matrix(1.25,0,0,-1.25,0,225)"><g id="g3089"><path style="fill:#fff;fill-opacity:1;fill-rule:nonzero;stroke:#fff;stroke-opacity:1;stroke-width:1.06;stroke-linecap:round;stroke-linejoin:round;stroke-miterlimit:10;stroke-dasharray:none" id="path3091" d="M 0,0 576,0 576,180 0,180 0,0 z"/></g><g id="g3095"><g id="g3097" clip-path="url(#clipPath3099)"><path style="fill:#fff;fill-opacity:1;fill-rule:nonzero;stroke:none" id="path3103" d="m 41.22,37.28 122.78,0 0,113.94 -122.78,0 0,-113.94 z"/><path style="fill:none;stroke:#fafafa;stroke-opacity:1;stroke-width:1.06;stroke-linecap:butt;stroke-linejoin:round;stroke-miterlimit:10;stroke-dasharray:none" id="path3105" d="m 41.22,53.61 122.78,0"/><path style="fill:none;stroke:#fafafa;stroke-opacity:1;stroke-width:1.06;stroke-linecap:butt;stroke-linejoin:round;stroke-miterlimit:10;stroke-dasharray:none" id="path3107" d="m 41.22,78.83 122.78,0"/><path style="fill:none;stroke:#fafafa;stroke-opacity:1;stroke-width:1.06;stroke-linecap:butt;stroke-linejoin:round;stroke-miterlimit:10;stroke-dasharray:none" id="path3109" d="m 41.22,104.05 122.78,0"/><path style="fill:none;stroke:#fafafa;stroke-opacity:1;stroke-width:1.06;stroke-linecap:butt;stroke-linejoin:round;stroke-miterlimit:10;stroke-dasharray:none" id="path3111" d="m 41.22,129.28 122.78,0"/><path style="fill:none;stroke:#fafafa;stroke-opacity:1;stroke-width:1.06;stroke-linecap:butt;stroke-linejoin:round;stroke-miterlimit:10;stroke-dasharray:none" id="path3113" d="m 60.76,37.28 0,113.94"/><path style="fill:none;stroke:#fafafa;stroke-opacity:1;stroke-width:1.06;stroke-linecap:butt;stroke-linejoin:round;stroke-miterlimit:10;stroke-dasharray:none" id="path3115" d="m 88.66,37.28 0,113.94"/><path style="fill:none;stroke:#fafafa;stroke-opacity:1;stroke-width:1.06;stroke-linecap:butt;stroke-linejoin:round;stroke-miterlimit:10;stroke-dasharray:none" id="path3117" d="m 116.56,37.28 0,113.94"/><path style="fill:none;stroke:#fafafa;stroke-opacity:1;stroke-width:1.06;stroke-linecap:butt;stroke-linejoin:round;stroke-miterlimit:10;stroke-dasharray:none" id="path3119" d="m 144.47,37.28 0,113.94"/><path style="fill:none;stroke:#e5e5e5;stroke-opacity:1;stroke-width:.43;stroke-linecap:butt;stroke-linejoin:round;stroke-miterlimit:10;stroke-dasharray:none" id="path3121" d="M 41.22,41 164,41"/><path style="fill:none;stroke:#e5e5e5;stroke-opacity:1;stroke-width:.43;stroke-linecap:butt;stroke-linejoin:round;stroke-miterlimit:10;stroke-dasharray:none" id="path3123" d="m 41.22,66.22 122.78,0"/><path style="fill:none;stroke:#e5e5e5;stroke-opacity:1;stroke-width:.43;stroke-linecap:butt;stroke-linejoin:round;stroke-miterlimit:10;stroke-dasharray:none" id="path3125" d="m 41.22,91.44 122.78,0"/><path style="fill:none;stroke:#e5e5e5;stroke-opacity:1;stroke-width:.43;stroke-linecap:butt;stroke-linejoin:round;stroke-miterlimit:10;stroke-dasharray:none" id="path3127" d="m 41.22,116.67 122.78,0"/><path style="fill:none;stroke:#e5e5e5;stroke-opacity:1;stroke-width:.43;stroke-linecap:butt;stroke-linejoin:round;stroke-miterlimit:10;stroke-dasharray:none" id="path3129" d="m 41.22,141.89 122.78,0"/><path style="fill:none;stroke:#e5e5e5;stroke-opacity:1;stroke-width:.43;stroke-linecap:butt;stroke-linejoin:round;stroke-miterlimit:10;stroke-dasharray:none" id="path3131" d="m 46.8,37.28 0,113.94"/><path style="fill:none;stroke:#e5e5e5;stroke-opacity:1;stroke-width:.43;stroke-linecap:butt;stroke-linejoin:round;stroke-miterlimit:10;stroke-dasharray:none" id="path3133" d="m 74.71,37.28 0,113.94"/><path style="fill:none;stroke:#e5e5e5;stroke-opacity:1;stroke-width:.43;stroke-linecap:butt;stroke-linejoin:round;stroke-miterlimit:10;stroke-dasharray:none" id="path3135" d="m 102.61,37.28 0,113.94"/><path style="fill:none;stroke:#e5e5e5;stroke-opacity:1;stroke-width:.43;stroke-linecap:butt;stroke-linejoin:round;stroke-miterlimit:10;stroke-dasharray:none" id="path3137" d="m 130.51,37.28 0,113.94"/><path style="fill:none;stroke:#e5e5e5;stroke-opacity:1;stroke-width:.43;stroke-linecap:butt;stroke-linejoin:round;stroke-miterlimit:10;stroke-dasharray:none" id="path3139" d="m 158.42,37.28 0,113.94"/><path style="fill:none;stroke:#000;stroke-opacity:1;stroke-width:1.06;stroke-linecap:butt;stroke-linejoin:round;stroke-miterlimit:1;stroke-dasharray:none" id="path3141" d="m 46.8,45.19 1.12,-1.49 1.12,-0.25 1.11,-0.3 1.12,-0.15 1.11,-0.08 1.12,0.01 1.12,0.09 1.11,0.06 1.12,0.08 1.11,0.12 1.12,0.11 1.12,0.1 1.11,0.15 1.12,0.2 1.12,0.12 1.11,0.15 1.12,0.16 1.11,0.18 1.12,0.21 1.12,0.17 1.11,0.13 1.12,0.28 1.11,0.3 1.12,0.29 1.12,0.37 1.11,0.33 1.12,0.23 1.12,0.4 1.11,0.35 1.12,0.4 1.11,0.35 1.12,0.56 1.12,0.48 1.11,0.7 1.12,0.56 1.11,0.76 1.12,0.7 1.12,0.67 1.11,0.72 1.12,0.63 1.12,0.77 1.11,0.78 1.12,0.78 1.11,0.77 1.12,0.88 1.12,4.58 1.11,1.45 1.12,1.25 1.11,1.21 1.12,1.21 1.12,0.98 1.11,1.66 1.12,0.97 1.12,1.09 1.11,5.22 1.12,1.28 1.11,1.1 1.12,0.49 1.12,1.51 1.11,1.51 1.12,1.74 1.11,1.01 1.12,1.36 1.12,1.64 1.11,1.39 1.12,1.2 1.12,1.43 1.11,1.92 1.12,1.98 1.11,2.28 1.12,1.78 1.12,1.99 1.11,2.05 1.12,1.77 1.11,2.32 1.12,2.15 1.12,1.88 1.11,2.06 1.12,2.38 1.12,1.89 1.11,2.17 1.12,2.64 1.11,1.93 1.12,1.97 1.12,0.99 1.11,1.95 1.12,1.71 1.11,1.64 1.12,1.62 1.12,1.35 1.11,1.8 1.12,1.52 1.12,1.18 1.11,0.7 1.12,0.74 1.11,0.28 1.12,0.43 1.12,0.66 1.11,0.79 1.12,0.22"/><path style="fill:none;stroke:#000;stroke-opacity:1;stroke-width:1.06;stroke-linecap:butt;stroke-linejoin:round;stroke-miterlimit:1;stroke-dasharray:2.13,2.13;stroke-dashoffset:0" id="path3143" d="m 46.8,45.19 1.12,-1.62 1.12,-0.27 1.11,-0.37 1.12,-0.26 1.11,-0.09 1.12,-0.07 1.12,0 1.11,-0.03 1.12,-0.02 1.11,0.03 1.12,0 1.12,0.01 1.11,0.01 1.12,0.06 1.12,0 1.11,0.03 1.12,0.03 1.11,-0.01 1.12,0.02 1.12,0 1.11,0.03 1.12,0.06 1.11,0.03 1.12,0.01 1.12,0.04 1.11,0.06 1.12,0.06 1.12,0.07 1.11,0.08 1.12,0.03 1.11,0.09 1.12,0.1 1.12,0.1 1.11,0.12 1.12,0.1 1.11,0.12 1.12,0.14 1.12,0.17 1.11,0.06 1.12,0.15 1.12,0.09 1.11,0.2 1.12,0.18 1.11,0.13 1.12,0.14 1.12,0.81 1.11,0.09 1.12,0.13 1.11,0.1 1.12,0.13 1.12,0.13 1.11,0.15 1.12,0.08 1.12,0.24 1.11,0.96 1.12,0.23 1.11,0.11 1.12,0.13 1.12,0.25 1.11,0.16 1.12,0.1 1.11,0.2 1.12,0.26 1.12,0.21 1.11,0.12 1.12,0.18 1.12,0.13 1.11,0.12 1.12,0.27 1.11,0.17 1.12,0.15 1.12,0.14 1.11,0.15 1.12,0.17 1.11,0.2 1.12,0.26 1.12,0.09 1.11,0.09 1.12,0.13 1.12,0.24 1.11,0.25 1.12,0.18 1.11,0.23 1.12,0.26 1.12,0.29 1.11,0.29 1.12,0.35 1.11,0.36 1.12,0.24 1.12,0.3 1.11,0.15 1.12,0.23 1.12,0.17 1.11,0.07 1.12,0.13 1.11,0.06 1.12,0.08 1.12,0.13 1.11,0.06 1.12,0.08"/><path style="fill:none;stroke:#7f7f7f;stroke-opacity:1;stroke-width:1.06;stroke-linecap:round;stroke-linejoin:round;stroke-miterlimit:10;stroke-dasharray:none" id="path3145" d="m 41.22,37.28 122.78,0 0,113.94 -122.78,0 0,-113.94 z"/></g></g><g id="g3149"><g id="g3151" clip-path="url(#clipPath3153)"><path style="fill:#fff;fill-opacity:1;fill-rule:nonzero;stroke:none" id="path3157" d="m 185.81,37.28 122.78,0 0,113.94 -122.78,0 0,-113.94 z"/><path style="fill:none;stroke:#fafafa;stroke-opacity:1;stroke-width:1.06;stroke-linecap:butt;stroke-linejoin:round;stroke-miterlimit:10;stroke-dasharray:none" id="path3159" d="m 185.81,60.74 122.77,0"/><path style="fill:none;stroke:#fafafa;stroke-opacity:1;stroke-width:1.06;stroke-linecap:butt;stroke-linejoin:round;stroke-miterlimit:10;stroke-dasharray:none" id="path3161" d="m 185.81,101.44 122.77,0"/><path style="fill:none;stroke:#fafafa;stroke-opacity:1;stroke-width:1.06;stroke-linecap:butt;stroke-linejoin:round;stroke-miterlimit:10;stroke-dasharray:none" id="path3163" d="m 185.81,142.14 122.77,0"/><path style="fill:none;stroke:#fafafa;stroke-opacity:1;stroke-width:1.06;stroke-linecap:butt;stroke-linejoin:round;stroke-miterlimit:10;stroke-dasharray:none" id="path3165" d="m 205.34,37.28 0,113.94"/><path style="fill:none;stroke:#fafafa;stroke-opacity:1;stroke-width:1.06;stroke-linecap:butt;stroke-linejoin:round;stroke-miterlimit:10;stroke-dasharray:none" id="path3167" d="m 233.24,37.28 0,113.94"/><path style="fill:none;stroke:#fafafa;stroke-opacity:1;stroke-width:1.06;stroke-linecap:butt;stroke-linejoin:round;stroke-miterlimit:10;stroke-dasharray:none" id="path3169" d="m 261.15,37.28 0,113.94"/><path style="fill:none;stroke:#fafafa;stroke-opacity:1;stroke-width:1.06;stroke-linecap:butt;stroke-linejoin:round;stroke-miterlimit:10;stroke-dasharray:none" id="path3171" d="m 289.05,37.28 0,113.94"/><path style="fill:none;stroke:#e5e5e5;stroke-opacity:1;stroke-width:.43;stroke-linecap:butt;stroke-linejoin:round;stroke-miterlimit:10;stroke-dasharray:none" id="path3173" d="m 185.81,40.39 122.77,0"/><path style="fill:none;stroke:#e5e5e5;stroke-opacity:1;stroke-width:.43;stroke-linecap:butt;stroke-linejoin:round;stroke-miterlimit:10;stroke-dasharray:none" id="path3175" d="m 185.81,81.09 122.77,0"/><path style="fill:none;stroke:#e5e5e5;stroke-opacity:1;stroke-width:.43;stroke-linecap:butt;stroke-linejoin:round;stroke-miterlimit:10;stroke-dasharray:none" id="path3177" d="m 185.81,121.79 122.77,0"/><path style="fill:none;stroke:#e5e5e5;stroke-opacity:1;stroke-width:.43;stroke-linecap:butt;stroke-linejoin:round;stroke-miterlimit:10;stroke-dasharray:none" id="path3179" d="m 191.39,37.28 0,113.94"/><path style="fill:none;stroke:#e5e5e5;stroke-opacity:1;stroke-width:.43;stroke-linecap:butt;stroke-linejoin:round;stroke-miterlimit:10;stroke-dasharray:none" id="path3181" d="m 219.29,37.28 0,113.94"/><path style="fill:none;stroke:#e5e5e5;stroke-opacity:1;stroke-width:.43;stroke-linecap:butt;stroke-linejoin:round;stroke-miterlimit:10;stroke-dasharray:none" id="path3183" d="m 247.19,37.28 0,113.94"/><path style="fill:none;stroke:#e5e5e5;stroke-opacity:1;stroke-width:.43;stroke-linecap:butt;stroke-linejoin:round;stroke-miterlimit:10;stroke-dasharray:none" id="path3185" d="m 275.1,37.28 0,113.94"/><path style="fill:none;stroke:#e5e5e5;stroke-opacity:1;stroke-width:.43;stroke-linecap:butt;stroke-linejoin:round;stroke-miterlimit:10;stroke-dasharray:none" id="path3187" d="m 303,37.28 0,113.94"/><path style="fill:none;stroke:#000;stroke-opacity:1;stroke-width:1.06;stroke-linecap:butt;stroke-linejoin:round;stroke-miterlimit:1;stroke-dasharray:none" id="path3189" d="m 191.39,42.46 1.11,0.1 1.12,0.05 1.12,0.01 1.11,0.04 1.12,1.03 1.11,-0.35 1.12,-0.06 1.12,0.29 1.11,0.06 1.12,0.18 1.11,0.13 1.12,0.12 1.12,0.11 1.11,0.18 1.12,0.15 1.12,0.56 1.11,0.25 1.12,0.25 1.11,0.33 1.12,0.38 1.12,0.34 1.11,0.44 1.12,0.39 1.11,0.25 1.12,0.3 1.12,0.3 1.11,0.57 1.12,0.68 1.12,0.78 1.11,0.9 1.12,0.63 1.11,0.73 1.12,0.67 1.12,0.6 1.11,0.97 1.12,0.87 1.11,1.05 1.12,1.41 1.12,1.05 1.11,1.5 1.12,1.01 1.12,1.09 1.11,1.06 1.12,0.9 1.11,1.11 1.12,1.31 1.12,1.55 1.11,1.63 1.12,1.73 1.11,1.78 1.12,2.05 1.12,2.42 1.11,1.87 1.12,6.02 1.12,2.5 1.11,1.68 1.12,1.83 1.11,1.27 1.12,1.44 1.12,1.51 1.11,1.2 1.12,1.94 1.11,5.56 1.12,0.73 1.12,0.85 1.11,1 1.12,1.25 1.12,1.58 1.11,0.74 1.12,1.49 1.11,1.34 1.12,1.99 1.12,1.61 1.11,2.09 1.12,2.35 1.11,1.51 1.12,1.27 1.12,0.95 1.11,2.51 1.12,1.23 1.12,1.46 1.11,1.18 1.12,1.32 1.11,1.32 1.12,1.78 1.12,1.29 1.11,0.68 1.12,0.72 1.11,0.71 1.12,0.27 1.12,0.65 1.11,0.76 1.12,0.92 1.12,0.5 1.11,0.33 1.12,0.39 1.11,0.59 1.12,0.83 1.12,0.15 1.11,0.54"/><path style="fill:none;stroke:#000;stroke-opacity:1;stroke-width:1.06;stroke-linecap:butt;stroke-linejoin:round;stroke-miterlimit:1;stroke-dasharray:2.13,2.13;stroke-dashoffset:0" id="path3191" d="m 191.39,42.46 1.11,0.14 1.12,0.05 1.12,0.03 1.11,-0.05 1.12,1.17 1.11,-0.39 1.12,-0.12 1.12,0.04 1.11,0.01 1.12,0.04 1.11,-0.02 1.12,-0.02 1.12,-0.04 1.11,0.08 1.12,0.1 1.12,0.27 1.11,0.18 1.12,0.02 1.11,0.13 1.12,0.16 1.12,0.09 1.11,0.1 1.12,0.15 1.11,0.11 1.12,0.07 1.12,0.09 1.11,0.12 1.12,0.09 1.12,0.17 1.11,0.37 1.12,0.36 1.11,0.14 1.12,0.08 1.12,0.24 1.11,0.42 1.12,0.19 1.11,0.3 1.12,0.41 1.12,0.25 1.11,0.22 1.12,0.21 1.12,0.31 1.11,0.26 1.12,0.16 1.11,0.15 1.12,0.35 1.12,0.22 1.11,0.51 1.12,0.51 1.11,0.51 1.12,0.64 1.12,1.12 1.11,0.42 1.12,1.72 1.12,0.83 1.11,0.46 1.12,0.39 1.11,0.03 1.12,0.26 1.12,0.77 1.11,0.37 1.12,0.74 1.11,1.3 1.12,0.35 1.12,-0.19 1.11,-0.45 1.12,0.24 1.12,0.24 1.11,0.27 1.12,0.18 1.11,0.6 1.12,0.64 1.12,0.73 1.11,0.67 1.12,0.09 1.11,0.8 1.12,0.14 1.12,0.26 1.11,0.4 1.12,0.43 1.12,0.16 1.11,0.63 1.12,0.74 1.11,0.2 1.12,0.4 1.12,0.45 1.11,0.2 1.12,0.53 1.11,0.35 1.12,0.15 1.12,-0.17 1.11,0.6 1.12,0.04 1.12,0.23 1.11,0.19 1.12,0.29 1.11,0.12 1.12,0.46 1.12,0.23 L 303,72"/><path style="fill:none;stroke:#7f7f7f;stroke-opacity:1;stroke-width:1.06;stroke-linecap:round;stroke-linejoin:round;stroke-miterlimit:10;stroke-dasharray:none" id="path3193" d="m 185.81,37.28 122.78,0 0,113.94 -122.78,0 0,-113.94 z"/></g></g><g id="g3197"><g id="g3199" clip-path="url(#clipPath3201)"><path style="fill:#fff;fill-opacity:1;fill-rule:nonzero;stroke:none" id="path3205" d="m 330.39,37.28 122.78,0 0,113.94 -122.78,0 0,-113.94 z"/><path style="fill:none;stroke:#fafafa;stroke-opacity:1;stroke-width:1.06;stroke-linecap:butt;stroke-linejoin:round;stroke-miterlimit:10;stroke-dasharray:none" id="path3207" d="m 330.39,58.24 122.78,0"/><path style="fill:none;stroke:#fafafa;stroke-opacity:1;stroke-width:1.06;stroke-linecap:butt;stroke-linejoin:round;stroke-miterlimit:10;stroke-dasharray:none" id="path3209" d="m 330.39,93.35 122.78,0"/><path style="fill:none;stroke:#fafafa;stroke-opacity:1;stroke-width:1.06;stroke-linecap:butt;stroke-linejoin:round;stroke-miterlimit:10;stroke-dasharray:none" id="path3211" d="m 330.39,128.46 122.78,0"/><path style="fill:none;stroke:#fafafa;stroke-opacity:1;stroke-width:1.06;stroke-linecap:butt;stroke-linejoin:round;stroke-miterlimit:10;stroke-dasharray:none" id="path3213" d="m 349.92,37.28 0,113.94"/><path style="fill:none;stroke:#fafafa;stroke-opacity:1;stroke-width:1.06;stroke-linecap:butt;stroke-linejoin:round;stroke-miterlimit:10;stroke-dasharray:none" id="path3215" d="m 377.83,37.28 0,113.94"/><path style="fill:none;stroke:#fafafa;stroke-opacity:1;stroke-width:1.06;stroke-linecap:butt;stroke-linejoin:round;stroke-miterlimit:10;stroke-dasharray:none" id="path3217" d="m 405.73,37.28 0,113.94"/><path style="fill:none;stroke:#fafafa;stroke-opacity:1;stroke-width:1.06;stroke-linecap:butt;stroke-linejoin:round;stroke-miterlimit:10;stroke-dasharray:none" id="path3219" d="m 433.63,37.28 0,113.94"/><path style="fill:none;stroke:#e5e5e5;stroke-opacity:1;stroke-width:.43;stroke-linecap:butt;stroke-linejoin:round;stroke-miterlimit:10;stroke-dasharray:none" id="path3221" d="m 330.39,40.69 122.78,0"/><path style="fill:none;stroke:#e5e5e5;stroke-opacity:1;stroke-width:.43;stroke-linecap:butt;stroke-linejoin:round;stroke-miterlimit:10;stroke-dasharray:none" id="path3223" d="m 330.39,75.79 122.78,0"/><path style="fill:none;stroke:#e5e5e5;stroke-opacity:1;stroke-width:.43;stroke-linecap:butt;stroke-linejoin:round;stroke-miterlimit:10;stroke-dasharray:none" id="path3225" d="m 330.39,110.9 122.78,0"/><path style="fill:none;stroke:#e5e5e5;stroke-opacity:1;stroke-width:.43;stroke-linecap:butt;stroke-linejoin:round;stroke-miterlimit:10;stroke-dasharray:none" id="path3227" d="m 330.39,146.01 122.78,0"/><path style="fill:none;stroke:#e5e5e5;stroke-opacity:1;stroke-width:.43;stroke-linecap:butt;stroke-linejoin:round;stroke-miterlimit:10;stroke-dasharray:none" id="path3229" d="m 335.97,37.28 0,113.94"/><path style="fill:none;stroke:#e5e5e5;stroke-opacity:1;stroke-width:.43;stroke-linecap:butt;stroke-linejoin:round;stroke-miterlimit:10;stroke-dasharray:none" id="path3231" d="m 363.87,37.28 0,113.94"/><path style="fill:none;stroke:#e5e5e5;stroke-opacity:1;stroke-width:.43;stroke-linecap:butt;stroke-linejoin:round;stroke-miterlimit:10;stroke-dasharray:none" id="path3233" d="m 391.78,37.28 0,113.94"/><path style="fill:none;stroke:#e5e5e5;stroke-opacity:1;stroke-width:.43;stroke-linecap:butt;stroke-linejoin:round;stroke-miterlimit:10;stroke-dasharray:none" id="path3235" d="m 419.68,37.28 0,113.94"/><path style="fill:none;stroke:#e5e5e5;stroke-opacity:1;stroke-width:.43;stroke-linecap:butt;stroke-linejoin:round;stroke-miterlimit:10;stroke-dasharray:none" id="path3237" d="m 447.59,37.28 0,113.94"/><path style="fill:none;stroke:#000;stroke-opacity:1;stroke-width:1.06;stroke-linecap:butt;stroke-linejoin:round;stroke-miterlimit:1;stroke-dasharray:none" id="path3239" d="m 335.97,71.44 1.12,-16.32 1.11,-1.49 1.12,-1.39 1.12,-0.85 1.11,-0.08 1.12,0.12 1.11,0.75 1.12,0.35 1.12,0.36 1.11,0.18 1.12,0.23 1.11,0.23 1.12,0.15 1.12,1.66 1.11,0.39 1.12,0 1.12,0.58 1.11,0.34 1.12,1.38 1.11,1.58 1.12,0.67 1.12,1.83 1.11,1.16 1.12,1.48 1.11,0.67 1.12,0.55 1.12,0.99 1.11,1.2 1.12,2.3 1.12,1.8 1.11,0.3 1.12,2.41 1.11,0.82 1.12,3.05 1.12,1.64 1.11,0.85 1.12,2.16 1.11,0.47 1.12,0.01 1.12,0.93 1.11,1.82 1.12,1.33 1.12,1.68 1.11,1.15 1.12,1.11 1.11,13.25 1.12,-3.28 1.12,1.43 1.11,2.76 1.12,1.85 1.11,0.63 1.12,3.39 1.12,0.09 1.11,3.2 1.12,-1.95 1.12,2.5 1.11,1.09 1.12,-0.24 1.11,3.3 1.12,2.3 1.12,1.67 1.11,0.63 1.12,0.2 1.11,2.05 1.12,-0.16 1.12,0.07 1.11,1.54 1.12,2.32 1.12,2.24 1.11,3.65 1.12,0.87 1.11,0.31 1.12,1.49 1.12,-0.2 1.11,1.28 1.12,1.38 1.11,4.12 1.12,-0.34 1.12,-1.42 1.11,-0.23 1.12,2.26 1.12,-0.16 1.11,-0.99 1.12,-0.79 1.11,-1.47 1.12,0.41 1.12,-0.77 1.11,0.56 1.12,0.68 1.11,-0.38 1.12,-1.4 1.12,1.5 1.11,0.39 1.12,-0.8 1.12,0.38 1.11,0.25 1.12,-0.43 1.11,0.11 1.12,-0.44 1.12,-1.2"/><path style="fill:none;stroke:#000;stroke-opacity:1;stroke-width:1.06;stroke-linecap:butt;stroke-linejoin:round;stroke-miterlimit:1;stroke-dasharray:2.13,2.13;stroke-dashoffset:0" id="path3241" d="m 335.97,71.44 1.12,-18.92 1.11,-2.71 1.12,-2.73 1.12,-1.86 1.11,-0.94 1.12,-0.56 1.11,-0.37 1.12,-0.3 1.12,-0.22 1.11,-0.15 1.12,-0.16 1.11,-0.06 1.12,0.05 1.12,0.19 1.11,0.09 1.12,-0.05 1.12,0.03 1.11,-0.01 1.12,0.08 1.11,0.07 1.12,0.01 1.12,0.27 1.11,0.12 1.12,0.14 1.11,0 1.12,0.07 1.12,0.1 1.11,0.13 1.12,0.19 1.12,0.09 1.11,-0.05 1.12,0.21 1.11,0.04 1.12,0.29 1.12,0.07 1.11,0.03 1.12,0.23 1.11,0.01 1.12,-0.14 1.12,0.1 1.11,0.03 1.12,0 1.12,0.08 1.11,0.12 1.12,0.08 1.11,1.09 1.12,-0.66 1.12,0.04 1.11,0.42 1.12,0.33 1.11,0.2 1.12,0.66 1.12,0.12 1.11,0.51 1.12,-0.54 1.12,0.14 1.11,0.13 1.12,0.01 1.11,0.47 1.12,0.11 1.12,-0.08 1.11,0.15 1.12,0.06 1.11,0.22 1.12,-0.27 1.12,-0.05 1.11,-0.04 1.12,0.2 1.12,0.19 1.11,0.41 1.12,0.03 1.11,0.38 1.12,0.55 1.12,0.05 1.11,0.22 1.12,0.45 1.11,0.89 1.12,-0.11 1.12,-0.2 1.11,0.04 1.12,0.24 1.12,-0.04 1.11,-0.22 1.12,0.04 1.11,-0.14 1.12,0.26 1.12,-0.2 1.11,-0.12 1.12,0.12 1.11,-0.02 1.12,-0.23 1.12,0.25 1.11,0.16 1.12,-0.25 1.12,0.2 1.11,0.1 1.12,-0.09 1.11,-0.07 1.12,-0.05 1.12,0.06"/><path style="fill:none;stroke:#7f7f7f;stroke-opacity:1;stroke-width:1.06;stroke-linecap:round;stroke-linejoin:round;stroke-miterlimit:10;stroke-dasharray:none" id="path3243" d="m 330.39,37.28 122.78,0 0,113.94 -122.78,0 0,-113.94 z"/></g></g><path id="path3249" d="m 41.22,151.22 122.78,0 0,14.38 -122.78,0 0,-14.38 z" style="fill:#fff;fill-opacity:1;fill-rule:nonzero;stroke:#7f7f7f;stroke-width:1.05999994;stroke-linecap:round;stroke-linejoin:round;stroke-miterlimit:10;stroke-opacity:1;stroke-dasharray:none"/><path id="path3259" d="m 185.81,151.22 122.78,0 0,14.38 -122.78,0 0,-14.38 z" style="fill:#fff;fill-opacity:1;fill-rule:nonzero;stroke:#7f7f7f;stroke-width:1.05999994;stroke-linecap:round;stroke-linejoin:round;stroke-miterlimit:10;stroke-opacity:1;stroke-dasharray:none"/><path id="path3269" d="m 330.39,151.22 122.78,0 0,14.38 -122.78,0 0,-14.38 z" style="fill:#fff;fill-opacity:1;fill-rule:nonzero;stroke:#7f7f7f;stroke-width:1.05999994;stroke-linecap:round;stroke-linejoin:round;stroke-miterlimit:10;stroke-opacity:1;stroke-dasharray:none"/><g id="g3279"><text id="text3281" transform="matrix(1,0,0,-1,28.58,37.41)"><tspan style="fill:#000;fill-opacity:1;fill-rule:nonzero;stroke:none;font-family:Helvetica;font-variant:normal;font-weight:400;font-size:10;writing-mode:lr;-inkscape-font-specification:Helvetica" id="tspan3283" x="0" y="0">0</tspan></text><text id="text3285" transform="matrix(1,0,0,-1,23.02,62.63)"><tspan style="fill:#000;fill-opacity:1;fill-rule:nonzero;stroke:none;font-family:Helvetica;font-variant:normal;font-weight:400;font-size:10;writing-mode:lr;-inkscape-font-specification:Helvetica" id="tspan3287" x="0 5.56" y="0">20</tspan></text><text id="text3289" transform="matrix(1,0,0,-1,23.02,87.85)"><tspan style="fill:#000;fill-opacity:1;fill-rule:nonzero;stroke:none;font-family:Helvetica;font-variant:normal;font-weight:400;font-size:10;writing-mode:lr;-inkscape-font-specification:Helvetica" id="tspan3291" x="0 5.56" y="0">40</tspan></text><text id="text3293" transform="matrix(1,0,0,-1,23.02,113.08)"><tspan style="fill:#000;fill-opacity:1;fill-rule:nonzero;stroke:none;font-family:Helvetica;font-variant:normal;font-weight:400;font-size:10;writing-mode:lr;-inkscape-font-specification:Helvetica" id="tspan3295" x="0 5.56" y="0">60</tspan></text><text id="text3297" transform="matrix(1,0,0,-1,23.02,138.3)"><tspan style="fill:#000;fill-opacity:1;fill-rule:nonzero;stroke:none;font-family:Helvetica;font-variant:normal;font-weight:400;font-size:10;writing-mode:lr;-inkscape-font-specification:Helvetica" id="tspan3299" x="0 5.56" y="0">80</tspan></text></g><g id="g3303"><path style="fill:none;stroke:#000;stroke-opacity:1;stroke-width:1.06;stroke-linecap:butt;stroke-linejoin:round;stroke-miterlimit:10;stroke-dasharray:none" id="path3305" d="m 36.97,41 4.25,0"/><path style="fill:none;stroke:#000;stroke-opacity:1;stroke-width:1.06;stroke-linecap:butt;stroke-linejoin:round;stroke-miterlimit:10;stroke-dasharray:none" id="path3307" d="m 36.97,66.22 4.25,0"/><path style="fill:none;stroke:#000;stroke-opacity:1;stroke-width:1.06;stroke-linecap:butt;stroke-linejoin:round;stroke-miterlimit:10;stroke-dasharray:none" id="path3309" d="m 36.97,91.44 4.25,0"/><path style="fill:none;stroke:#000;stroke-opacity:1;stroke-width:1.06;stroke-linecap:butt;stroke-linejoin:round;stroke-miterlimit:10;stroke-dasharray:none" id="path3311" d="m 36.97,116.67 4.25,0"/><path style="fill:none;stroke:#000;stroke-opacity:1;stroke-width:1.06;stroke-linecap:butt;stroke-linejoin:round;stroke-miterlimit:10;stroke-dasharray:none" id="path3313" d="m 36.97,141.89 4.25,0"/></g><g id="g3325"><text id="text3327" transform="matrix(1,0,0,-1,173.16,36.8)"><tspan style="fill:#000;fill-opacity:1;fill-rule:nonzero;stroke:none;font-family:Helvetica;font-variant:normal;font-weight:400;font-size:10;writing-mode:lr;-inkscape-font-specification:Helvetica" id="tspan3329" x="0" y="0">0</tspan></text><text id="text3331" transform="matrix(1,0,0,-1,167.6,77.5)"><tspan style="fill:#000;fill-opacity:1;fill-rule:nonzero;stroke:none;font-family:Helvetica;font-variant:normal;font-weight:400;font-size:10;writing-mode:lr;-inkscape-font-specification:Helvetica" id="tspan3333" x="0 5.56" y="0">10</tspan></text><text id="text3335" transform="matrix(1,0,0,-1,167.6,118.2)"><tspan style="fill:#000;fill-opacity:1;fill-rule:nonzero;stroke:none;font-family:Helvetica;font-variant:normal;font-weight:400;font-size:10;writing-mode:lr;-inkscape-font-specification:Helvetica" id="tspan3337" x="0 5.56" y="0">20</tspan></text></g><g id="g3341"><path style="fill:none;stroke:#000;stroke-opacity:1;stroke-width:1.06;stroke-linecap:butt;stroke-linejoin:round;stroke-miterlimit:10;stroke-dasharray:none" id="path3343" d="m 181.55,40.39 4.26,0"/><path style="fill:none;stroke:#000;stroke-opacity:1;stroke-width:1.06;stroke-linecap:butt;stroke-linejoin:round;stroke-miterlimit:10;stroke-dasharray:none" id="path3345" d="m 181.55,81.09 4.26,0"/><path style="fill:none;stroke:#000;stroke-opacity:1;stroke-width:1.06;stroke-linecap:butt;stroke-linejoin:round;stroke-miterlimit:10;stroke-dasharray:none" id="path3347" d="m 181.55,121.79 4.26,0"/></g><g id="g3359"><text id="text3361" transform="matrix(1,0,0,-1,317.74,37.1)"><tspan style="fill:#000;fill-opacity:1;fill-rule:nonzero;stroke:none;font-family:Helvetica;font-variant:normal;font-weight:400;font-size:10;writing-mode:lr;-inkscape-font-specification:Helvetica" id="tspan3363" x="0" y="0">0</tspan></text><text id="text3365" transform="matrix(1,0,0,-1,312.18,72.2)"><tspan style="fill:#000;fill-opacity:1;fill-rule:nonzero;stroke:none;font-family:Helvetica;font-variant:normal;font-weight:400;font-size:10;writing-mode:lr;-inkscape-font-specification:Helvetica" id="tspan3367" x="0 5.56" y="0">20</tspan></text><text id="text3369" transform="matrix(1,0,0,-1,312.18,107.31)"><tspan style="fill:#000;fill-opacity:1;fill-rule:nonzero;stroke:none;font-family:Helvetica;font-variant:normal;font-weight:400;font-size:10;writing-mode:lr;-inkscape-font-specification:Helvetica" id="tspan3371" x="0 5.56" y="0">40</tspan></text><text id="text3373" transform="matrix(1,0,0,-1,312.18,142.42)"><tspan style="fill:#000;fill-opacity:1;fill-rule:nonzero;stroke:none;font-family:Helvetica;font-variant:normal;font-weight:400;font-size:10;writing-mode:lr;-inkscape-font-specification:Helvetica" id="tspan3375" x="0 5.56" y="0">60</tspan></text></g><g id="g3379"><path style="fill:none;stroke:#000;stroke-opacity:1;stroke-width:1.06;stroke-linecap:butt;stroke-linejoin:round;stroke-miterlimit:10;stroke-dasharray:none" id="path3381" d="m 326.14,40.69 4.25,0"/><path style="fill:none;stroke:#000;stroke-opacity:1;stroke-width:1.06;stroke-linecap:butt;stroke-linejoin:round;stroke-miterlimit:10;stroke-dasharray:none" id="path3383" d="m 326.14,75.79 4.25,0"/><path style="fill:none;stroke:#000;stroke-opacity:1;stroke-width:1.06;stroke-linecap:butt;stroke-linejoin:round;stroke-miterlimit:10;stroke-dasharray:none" id="path3385" d="m 326.14,110.9 4.25,0"/><path style="fill:none;stroke:#000;stroke-opacity:1;stroke-width:1.06;stroke-linecap:butt;stroke-linejoin:round;stroke-miterlimit:10;stroke-dasharray:none" id="path3387" d="m 326.14,146.01 4.25,0"/></g><g id="g3399"><path style="fill:none;stroke:#000;stroke-opacity:1;stroke-width:1.06;stroke-linecap:butt;stroke-linejoin:round;stroke-miterlimit:10;stroke-dasharray:none" id="path3401" d="m 46.8,33.03 0,4.25"/><path style="fill:none;stroke:#000;stroke-opacity:1;stroke-width:1.06;stroke-linecap:butt;stroke-linejoin:round;stroke-miterlimit:10;stroke-dasharray:none" id="path3403" d="m 74.71,33.03 0,4.25"/><path style="fill:none;stroke:#000;stroke-opacity:1;stroke-width:1.06;stroke-linecap:butt;stroke-linejoin:round;stroke-miterlimit:10;stroke-dasharray:none" id="path3405" d="m 102.61,33.03 0,4.25"/><path style="fill:none;stroke:#000;stroke-opacity:1;stroke-width:1.06;stroke-linecap:butt;stroke-linejoin:round;stroke-miterlimit:10;stroke-dasharray:none" id="path3407" d="m 130.51,33.03 0,4.25"/><path style="fill:none;stroke:#000;stroke-opacity:1;stroke-width:1.06;stroke-linecap:butt;stroke-linejoin:round;stroke-miterlimit:10;stroke-dasharray:none" id="path3409" d="m 158.42,33.03 0,4.25"/></g><g id="g3413"><text id="text3415" transform="matrix(1,0,0,-1,44.02,23.02)"><tspan style="fill:#000;fill-opacity:1;fill-rule:nonzero;stroke:none;font-family:Helvetica;font-variant:normal;font-weight:400;font-size:10;writing-mode:lr;-inkscape-font-specification:Helvetica" id="tspan3417" x="0" y="0">0</tspan></text><text id="text3419" transform="matrix(1,0,0,-1,66.37,23.02)"><tspan style="fill:#000;fill-opacity:1;fill-rule:nonzero;stroke:none;font-family:Helvetica;font-variant:normal;font-weight:400;font-size:10;writing-mode:lr;-inkscape-font-specification:Helvetica" id="tspan3421" x="0 5.56 11.12" y="0">250</tspan></text><text id="text3423" transform="matrix(1,0,0,-1,94.27,23.02)"><tspan style="fill:#000;fill-opacity:1;fill-rule:nonzero;stroke:none;font-family:Helvetica;font-variant:normal;font-weight:400;font-size:10;writing-mode:lr;-inkscape-font-specification:Helvetica" id="tspan3425" x="0 5.56 11.12" y="0">500</tspan></text><text id="text3427" transform="matrix(1,0,0,-1,122.17,23.02)"><tspan style="fill:#000;fill-opacity:1;fill-rule:nonzero;stroke:none;font-family:Helvetica;font-variant:normal;font-weight:400;font-size:10;writing-mode:lr;-inkscape-font-specification:Helvetica" id="tspan3429" x="0 5.56 11.12" y="0">750</tspan></text><text id="text3431" transform="matrix(1,0,0,-1,147.3,23.02)"><tspan style="fill:#000;fill-opacity:1;fill-rule:nonzero;stroke:none;font-family:Helvetica;font-variant:normal;font-weight:400;font-size:10;writing-mode:lr;-inkscape-font-specification:Helvetica" id="tspan3433" x="0 5.56 11.12 16.68" y="0">1000</tspan></text></g><g id="g3445"><path style="fill:none;stroke:#000;stroke-opacity:1;stroke-width:1.06;stroke-linecap:butt;stroke-linejoin:round;stroke-miterlimit:10;stroke-dasharray:none" id="path3447" d="m 191.39,33.03 0,4.25"/><path style="fill:none;stroke:#000;stroke-opacity:1;stroke-width:1.06;stroke-linecap:butt;stroke-linejoin:round;stroke-miterlimit:10;stroke-dasharray:none" id="path3449" d="m 219.29,33.03 0,4.25"/><path style="fill:none;stroke:#000;stroke-opacity:1;stroke-width:1.06;stroke-linecap:butt;stroke-linejoin:round;stroke-miterlimit:10;stroke-dasharray:none" id="path3451" d="m 247.19,33.03 0,4.25"/><path style="fill:none;stroke:#000;stroke-opacity:1;stroke-width:1.06;stroke-linecap:butt;stroke-linejoin:round;stroke-miterlimit:10;stroke-dasharray:none" id="path3453" d="m 275.1,33.03 0,4.25"/><path style="fill:none;stroke:#000;stroke-opacity:1;stroke-width:1.06;stroke-linecap:butt;stroke-linejoin:round;stroke-miterlimit:10;stroke-dasharray:none" id="path3455" d="m 303,33.03 0,4.25"/></g><g id="g3459"><text id="text3461" transform="matrix(1,0,0,-1,188.61,23.02)"><tspan style="fill:#000;fill-opacity:1;fill-rule:nonzero;stroke:none;font-family:Helvetica;font-variant:normal;font-weight:400;font-size:10;writing-mode:lr;-inkscape-font-specification:Helvetica" id="tspan3463" x="0" y="0">0</tspan></text><text id="text3465" transform="matrix(1,0,0,-1,210.95,23.02)"><tspan style="fill:#000;fill-opacity:1;fill-rule:nonzero;stroke:none;font-family:Helvetica;font-variant:normal;font-weight:400;font-size:10;writing-mode:lr;-inkscape-font-specification:Helvetica" id="tspan3467" x="0 5.56 11.12" y="0">250</tspan></text><text id="text3469" transform="matrix(1,0,0,-1,238.85,23.02)"><tspan style="fill:#000;fill-opacity:1;fill-rule:nonzero;stroke:none;font-family:Helvetica;font-variant:normal;font-weight:400;font-size:10;writing-mode:lr;-inkscape-font-specification:Helvetica" id="tspan3471" x="0 5.56 11.12" y="0">500</tspan></text><text id="text3473" transform="matrix(1,0,0,-1,266.76,23.02)"><tspan style="fill:#000;fill-opacity:1;fill-rule:nonzero;stroke:none;font-family:Helvetica;font-variant:normal;font-weight:400;font-size:10;writing-mode:lr;-inkscape-font-specification:Helvetica" id="tspan3475" x="0 5.56 11.12" y="0">750</tspan></text><text id="text3477" transform="matrix(1,0,0,-1,291.88,23.02)"><tspan style="fill:#000;fill-opacity:1;fill-rule:nonzero;stroke:none;font-family:Helvetica;font-variant:normal;font-weight:400;font-size:10;writing-mode:lr;-inkscape-font-specification:Helvetica" id="tspan3479" x="0 5.56 11.12 16.68" y="0">1000</tspan></text></g><g id="g3491"><path style="fill:none;stroke:#000;stroke-opacity:1;stroke-width:1.06;stroke-linecap:butt;stroke-linejoin:round;stroke-miterlimit:10;stroke-dasharray:none" id="path3493" d="m 335.97,33.03 0,4.25"/><path style="fill:none;stroke:#000;stroke-opacity:1;stroke-width:1.06;stroke-linecap:butt;stroke-linejoin:round;stroke-miterlimit:10;stroke-dasharray:none" id="path3495" d="m 363.87,33.03 0,4.25"/><path style="fill:none;stroke:#000;stroke-opacity:1;stroke-width:1.06;stroke-linecap:butt;stroke-linejoin:round;stroke-miterlimit:10;stroke-dasharray:none" id="path3497" d="m 391.78,33.03 0,4.25"/><path style="fill:none;stroke:#000;stroke-opacity:1;stroke-width:1.06;stroke-linecap:butt;stroke-linejoin:round;stroke-miterlimit:10;stroke-dasharray:none" id="path3499" d="m 419.68,33.03 0,4.25"/><path style="fill:none;stroke:#000;stroke-opacity:1;stroke-width:1.06;stroke-linecap:butt;stroke-linejoin:round;stroke-miterlimit:10;stroke-dasharray:none" id="path3501" d="m 447.59,33.03 0,4.25"/></g><g id="g3505"><text id="text3507" transform="matrix(1,0,0,-1,333.19,23.02)"><tspan style="fill:#000;fill-opacity:1;fill-rule:nonzero;stroke:none;font-family:Helvetica;font-variant:normal;font-weight:400;font-size:10;writing-mode:lr;-inkscape-font-specification:Helvetica" id="tspan3509" x="0" y="0">0</tspan></text><text id="text3511" transform="matrix(1,0,0,-1,355.53,23.02)"><tspan style="fill:#000;fill-opacity:1;fill-rule:nonzero;stroke:none;font-family:Helvetica;font-variant:normal;font-weight:400;font-size:10;writing-mode:lr;-inkscape-font-specification:Helvetica" id="tspan3513" x="0 5.56 11.12" y="0">250</tspan></text><text id="text3515" transform="matrix(1,0,0,-1,383.44,23.02)"><tspan style="fill:#000;fill-opacity:1;fill-rule:nonzero;stroke:none;font-family:Helvetica;font-variant:normal;font-weight:400;font-size:10;writing-mode:lr;-inkscape-font-specification:Helvetica" id="tspan3517" x="0 5.56 11.12" y="0">500</tspan></text><text id="text3519" transform="matrix(1,0,0,-1,411.34,23.02)"><tspan style="fill:#000;fill-opacity:1;fill-rule:nonzero;stroke:none;font-family:Helvetica;font-variant:normal;font-weight:400;font-size:10;writing-mode:lr;-inkscape-font-specification:Helvetica" id="tspan3521" x="0 5.56 11.12" y="0">750</tspan></text><text id="text3523" transform="matrix(1,0,0,-1,436.47,23.02)"><tspan style="fill:#000;fill-opacity:1;fill-rule:nonzero;stroke:none;font-family:Helvetica;font-variant:normal;font-weight:400;font-size:10;writing-mode:lr;-inkscape-font-specification:Helvetica" id="tspan3525" x="0 5.56 11.12 16.68" y="0">1000</tspan></text></g><g id="g3535"><text id="text3537" transform="matrix(1,0,0,-1,213.92,10.8)"><tspan style="fill:#000;fill-opacity:1;fill-rule:nonzero;stroke:none;font-family:Helvetica;font-variant:normal;font-weight:400;font-size:12;writing-mode:lr;-inkscape-font-specification:Helvetica" id="tspan3539" x="0 8.664 15.336 19.212 25.884 29.22 31.884 38.556 45.228 48.564 52.56 58.56 62.556" y="0">Duration (yr)</tspan></text></g><g id="g3543"><text id="text3545" transform="matrix(0,1,1,0,19.42,61.7)"><tspan style="fill:#000;fill-opacity:1;fill-rule:nonzero;stroke:none;font-family:Helvetica;font-variant:normal;font-weight:400;font-size:12;writing-mode:lr;-inkscape-font-specification:Helvetica" id="tspan3547" x="0 7.164 13.836 18.012 20.676 27.348 33.78 36.444 43.116 46.452 50.448 61.116" y="0">Variable (%)</tspan></text></g><g id="g3559"><path style="fill:#fff;fill-opacity:1;fill-rule:nonzero;stroke:none" id="path3561" d="m 463.2,70.56 88.36,0 0,47.38 -88.36,0 0,-47.38 z"/></g><g id="g3569"><path style="fill:#fff;fill-opacity:1;fill-rule:nonzero;stroke:#ccc;stroke-opacity:1;stroke-width:1.06;stroke-linecap:round;stroke-linejoin:round;stroke-miterlimit:10;stroke-dasharray:none" id="path3571" d="m 467.45,92.09 17.28,0 0,17.28 -17.28,0 0,-17.28 z"/></g><g id="g3575"><path style="fill:none;stroke:#000;stroke-opacity:1;stroke-width:1.06;stroke-linecap:butt;stroke-linejoin:round;stroke-miterlimit:10;stroke-dasharray:none" id="path3577" d="m 469.18,100.73 13.83,0"/></g><g id="g3581"><path style="fill:#fff;fill-opacity:1;fill-rule:nonzero;stroke:#ccc;stroke-opacity:1;stroke-width:1.06;stroke-linecap:round;stroke-linejoin:round;stroke-miterlimit:10;stroke-dasharray:none" id="path3583" d="m 467.45,74.81 17.28,0 0,17.28 -17.28,0 0,-17.28 z"/></g><g id="g3587"><path style="fill:none;stroke:#000;stroke-opacity:1;stroke-width:1.06;stroke-linecap:butt;stroke-linejoin:round;stroke-miterlimit:10;stroke-dasharray:2.13,2.13;stroke-dashoffset:0" id="path3589" d="m 469.18,83.45 13.83,0"/></g><g id="g3593"><text id="text3595" transform="matrix(1,0,0,-1,486.89,97.14)"><tspan style="fill:#000;fill-opacity:1;fill-rule:nonzero;stroke:none;font-family:Helvetica;font-variant:normal;font-weight:400;font-size:10;writing-mode:lr;-inkscape-font-specification:Helvetica" id="tspan3597" x="0 5.56 11.12 13.9 19.46 22.79 28.2 35.42 40.42 42.64 48.2" y="0">no browsing</tspan></text></g><g id="g3601"><text id="text3603" transform="matrix(1,0,0,-1,486.89,79.86)"><tspan style="fill:#000;fill-opacity:1;fill-rule:nonzero;stroke:none;font-family:Helvetica;font-variant:normal;font-weight:400;font-size:10;writing-mode:lr;-inkscape-font-specification:Helvetica" id="tspan3605" x="0 7.22 9.44 12.22 17.78 20.56 26.12 29.45 34.86 42.08 47.08 49.3 54.86" y="0">with browsing</tspan></text></g><text style="font-size:32px;font-style:normal;font-weight:400;line-height:125%;letter-spacing:0;word-spacing:0;fill:#000;fill-opacity:1;stroke:none;font-family:Sans" id="text3640" x="45.586" y="-155.503" transform="scale(1,-1)" xml:space="preserve"><tspan id="tspan3642" x="45.586" y="-155.503" style="font-size:8.80000019px">Biomass ratio A.alba/total</tspan></text><text style="font-size:32px;font-style:normal;font-weight:400;line-height:125%;letter-spacing:0;word-spacing:0;fill:#000;fill-opacity:1;stroke:none;font-family:Sans" id="text3640-9" x="203.968" y="-155.55" transform="scale(1,-1)" xml:space="preserve"><tspan id="tspan3642-7" x="203.968" y="-155.55" style="font-size:8.80000019px">Mature A.alba cells</tspan></text><text style="font-size:32px;font-style:normal;font-weight:400;line-height:125%;letter-spacing:0;word-spacing:0;fill:#000;fill-opacity:1;stroke:none;font-family:Sans" id="text3640-3" x="339.447" y="-155.124" transform="scale(1,-1)" xml:space="preserve"><tspan id="tspan3642-8" x="339.447" y="-155.124" style="font-size:8.80000019px">Individual A. alba trees</tspan></text></g></svg>